<svg width="96" height="80" viewBox="0 0 96 80" fill="none" xmlns="http://www.w3.org/2000/svg">
<path fill-rule="evenodd" clip-rule="evenodd" d="M58.454 1.59985C53.7534 1.59985 49.7079 4.35859 47.8149 8.3367H29.8225C27.0452 8.3367 24.7698 10.6104 24.7698 13.3893C24.7698 16.1683 27.0452 18.442 29.8225 18.442H47.8149C49.7079 22.4217 53.7534 25.1788 58.454 25.1788C64.9652 25.1788 70.2435 19.9005 70.2435 13.3893C70.2435 6.87817 64.9652 1.59985 58.454 1.59985Z" stroke="#00833F" stroke-width="3" stroke-linecap="round" stroke-linejoin="round"/>
<path fill-rule="evenodd" clip-rule="evenodd" d="M63.2305 13.3893C63.2305 15.2487 61.7214 16.7577 59.8621 16.7577C58.0027 16.7577 56.4937 15.2487 56.4937 13.3893C56.4937 11.5299 58.0027 10.0209 59.8621 10.0209C61.7214 10.0209 63.2305 11.5299 63.2305 13.3893Z" stroke="#00833F" stroke-width="3" stroke-linecap="round" stroke-linejoin="round"/>
<path fill-rule="evenodd" clip-rule="evenodd" d="M23.2567 61.1213C18.605 61.1213 14.8357 64.8906 14.8357 69.5424C14.8357 74.1942 18.605 77.9634 23.2567 77.9634C27.9085 77.9634 31.6778 74.1942 31.6778 69.5424C31.6778 64.8906 27.9085 61.1213 23.2567 61.1213Z" stroke="#00833F" stroke-width="3" stroke-linecap="round" stroke-linejoin="round"/>
<path fill-rule="evenodd" clip-rule="evenodd" d="M68.7304 61.1213C64.0787 61.1213 60.3094 64.8906 60.3094 69.5424C60.3094 74.1942 64.0787 77.9634 68.7304 77.9634C73.3822 77.9634 77.1515 74.1942 77.1515 69.5424C77.1515 64.8906 73.3822 61.1213 68.7304 61.1213Z" stroke="#00833F" stroke-width="3" stroke-linecap="round" stroke-linejoin="round"/>
<path fill-rule="evenodd" clip-rule="evenodd" d="M24.7698 49.8516H62.0195L55.5471 40.4622H29.9151L24.7698 49.8516Z" stroke="#00833F" stroke-width="3" stroke-linecap="round" stroke-linejoin="round"/>
<path d="M54.8094 68.9617H36.721" stroke="#00833F" stroke-width="3" stroke-linecap="round" stroke-linejoin="round"/>
<path d="M10.2435 68.9617H6.81783L1.61531 63.4998V52.6451C1.61531 52.6451 1.10668 47.6952 6.05657 47.3129C11.0048 46.9339 14.8364 46.4253 14.8364 46.4253L25.9808 32.8489H59.862L70.9037 46.4893C70.9037 46.4893 94.3799 46.8076 94.3799 54.0413V63.3045L88.7227 68.9617H82.1054" stroke="#00833F" stroke-width="3" stroke-linecap="round" stroke-linejoin="round"/>
</svg>
