<svg width="16" height="16" viewBox="0 0 16 16" fill="none" xmlns="http://www.w3.org/2000/svg">
<path fill-rule="evenodd" clip-rule="evenodd" d="M11.3131 8.20813L6.59979 3.49481C6.0791 2.97411 6.07909 2.12989 6.59979 1.60919C7.12049 1.08849 7.96471 1.08849 8.48541 1.60919L14.115 7.23878C14.1241 7.24736 14.133 7.25608 14.1419 7.26495C14.2946 7.41767 14.4025 7.59822 14.4657 7.79027C14.6183 8.25329 14.5105 8.78339 14.1423 9.15166C14.1298 9.16417 14.1171 9.17638 14.1042 9.18829L8.48505 14.8074C7.96435 15.3281 7.12013 15.3281 6.59943 14.8074C6.07873 14.2867 6.07873 13.4425 6.59943 12.9218L11.3131 8.20813Z" fill="white"/>
</svg>
