<svg width="16" height="16" viewBox="0 0 16 16" fill="none" xmlns="http://www.w3.org/2000/svg">
<path fill-rule="evenodd" clip-rule="evenodd" d="M4.68689 7.79187L9.40021 12.5052C9.9209 13.0259 9.92091 13.8701 9.40021 14.3908C8.87951 14.9115 8.03529 14.9115 7.51459 14.3908L1.885 8.76122C1.87594 8.75264 1.86697 8.74392 1.85809 8.73505C1.70538 8.58233 1.59745 8.40178 1.53431 8.20973C1.38166 7.74671 1.48946 7.21661 1.85773 6.84834C1.87024 6.83583 1.88294 6.82362 1.89581 6.81171L7.51495 1.19258C8.03565 0.671877 8.87987 0.671876 9.40057 1.19258C9.92127 1.71327 9.92127 2.55749 9.40057 3.07819L4.68689 7.79187Z" fill="white"/>
</svg>
