<svg width="75" height="98" viewBox="0 0 75 98" fill="none" xmlns="http://www.w3.org/2000/svg">
<path d="M73.2113 37.6003C73.2113 57.2657 57.2695 73.2104 37.6041 73.2104C17.9444 73.2104 1.99969 57.2657 1.99969 37.6003C1.99969 17.9377 17.9444 2.00171 37.6041 2.00171C53.5779 2.00171 67.1022 12.5239 71.6084 27.0141" stroke="#00833F" stroke-width="3" stroke-linecap="round" stroke-linejoin="round"/>
<path d="M1.99939 37.6002V49.0911C1.99939 68.7537 17.9441 84.6984 37.6038 84.6984C57.2692 84.6984 73.211 68.7537 73.211 49.0911V37.6002" stroke="#00833F" stroke-width="3" stroke-linecap="round" stroke-linejoin="round"/>
<path d="M1.99939 49.3445V60.8296C1.99939 80.4892 17.9441 96.4398 37.6038 96.4398C57.2692 96.4398 73.211 80.4892 73.211 60.8296V49.3445" stroke="#00833F" stroke-width="3" stroke-linecap="round" stroke-linejoin="round"/>
<path d="M30.2894 44.6685C30.2894 48.2001 33.152 51.0685 36.6836 51.0685C40.2211 51.0685 43.0836 48.2001 43.0836 44.6685C43.0836 35.5223 30.2894 41.067 30.2894 31.8947C30.2894 28.3659 33.152 25.5005 36.6836 25.5005C40.2211 25.5005 43.0836 28.3659 43.0836 31.8947" stroke="#00833F" stroke-width="3" stroke-linecap="round" stroke-linejoin="round"/>
<path d="M36.6842 56.1372V51.0696" stroke="#00833F" stroke-width="3" stroke-linecap="round" stroke-linejoin="round"/>
<path d="M36.6842 25.5008V20.4274" stroke="#00833F" stroke-width="3" stroke-linecap="round" stroke-linejoin="round"/>
</svg>
