<svg width="740" height="571" viewBox="0 0 740 571" fill="none" xmlns="http://www.w3.org/2000/svg">
<path d="M447.91 204.347H457.902L452.906 211.935L447.91 219.524L442.914 211.935L437.903 204.347H447.91Z" fill="black"/>
<path d="M292.104 204.492H302.111L297.101 212.08L292.104 219.683L287.108 212.08L282.112 204.492H292.104Z" fill="black"/>
<path d="M646.392 127.567L634.068 231.775L661.598 192.574L646.392 127.567Z" fill="#0082CA"/>
<path d="M661.598 192.574L600.747 277.102L631.679 274.93L661.598 192.574Z" fill="#222C64"/>
<path d="M631.679 274.93L536.464 281.939L533.712 317.462L631.679 274.93Z" fill="#0082CA"/>
<path d="M739.696 340.603L675.934 386.567C675.934 386.567 706.765 391.896 707.46 391.027C708.155 390.158 739.696 340.603 739.696 340.603Z" fill="#0082CA"/>
<path d="M707.46 391.013L605.917 377.328L643.554 403.771L707.46 391.013Z" fill="#222C64"/>
<path d="M643.554 403.77L562.965 347.076L534.813 375.141L643.554 403.77Z" fill="#0082CA"/>
<path d="M569.25 188.2L561.676 111.579L525.357 211.037L569.25 188.2Z" fill="#222C64"/>
<path d="M478.249 233.223L569.25 188.2L513.438 260.564L478.249 233.223Z" fill="#0082CA"/>
<path d="M509.76 392.924L586.222 420.627L484.418 413.937L509.76 392.924Z" fill="#0082CA"/>
<path d="M631.491 465.404L601.905 529.267L603.904 449.778L631.491 465.404Z" fill="#0082CA"/>
<path d="M586.222 420.627L631.491 465.403L543.531 417.832L586.222 420.627Z" fill="#222C64"/>
<path d="M459.698 433.255L430.576 452.79L533.35 474.368L459.698 433.255Z" fill="#0082CA"/>
<path d="M557.737 524.719L490.76 569.669L535.045 503.547L557.737 524.719Z" fill="#0082CA"/>
<path d="M533.35 474.368L557.737 524.72L492.846 466.07L533.35 474.368Z" fill="#222C64"/>
<path d="M535.045 503.547L493.86 517.493L490.76 569.669L535.045 503.547Z" fill="#00C4B3"/>
<path d="M658.513 366.379L544.038 340.183L482.926 410.823L658.513 366.379Z" fill="#222C64"/>
<path d="M646.392 127.567L634.068 231.775L661.598 192.574L646.392 127.567Z" fill="#0082CA"/>
<path d="M661.598 192.574L600.747 277.102L631.679 274.93L661.598 192.574Z" fill="#222C64"/>
<path d="M631.679 274.93L536.464 281.939L533.712 317.462L631.679 274.93Z" fill="#0082CA"/>
<path d="M739.696 340.603L675.934 386.567C675.934 386.567 706.765 391.896 707.46 391.027C708.155 390.158 739.696 340.603 739.696 340.603Z" fill="#0082CA"/>
<path d="M707.46 391.013L605.917 377.328L643.554 403.771L707.46 391.013Z" fill="#222C64"/>
<path d="M643.554 403.77L562.965 347.076L534.813 375.141L643.554 403.77Z" fill="#0082CA"/>
<path d="M569.25 188.2L561.676 111.579L525.357 211.037L569.25 188.2Z" fill="#222C64"/>
<path d="M478.249 233.223L569.25 188.2L513.438 260.564L478.249 233.223Z" fill="#0082CA"/>
<path d="M459.698 433.255L430.576 452.79L533.35 474.368L459.698 433.255Z" fill="#0082CA"/>
<path d="M557.737 524.719L490.76 569.669L535.045 503.547L557.737 524.719Z" fill="#0082CA"/>
<path d="M533.35 474.368L557.737 524.72L492.846 466.07L533.35 474.368Z" fill="#222C64"/>
<path d="M535.045 503.547L493.86 517.493L490.76 569.669L535.045 503.547Z" fill="#00C4B3"/>
<path d="M658.513 366.379L544.038 340.183L482.926 410.823L658.513 366.379Z" fill="#222C64"/>
<path d="M93.6078 127.567L105.932 231.775L78.4023 192.574L93.6078 127.567Z" fill="#0082CA"/>
<path d="M78.4023 192.574L139.253 277.102L108.321 274.93L78.4023 192.574Z" fill="#222C64"/>
<path d="M108.321 274.93L203.536 281.939L206.288 317.462L108.321 274.93Z" fill="#0082CA"/>
<path d="M0.304138 340.603L64.0658 386.567C64.0658 386.567 33.2349 391.896 32.5398 391.027C31.8446 390.158 0.304138 340.603 0.304138 340.603Z" fill="#0082CA"/>
<path d="M32.5397 391.013L134.083 377.328L96.4462 403.771L32.5397 391.013Z" fill="#222C64"/>
<path d="M96.4462 403.77L177.035 347.076L205.187 375.141L96.4462 403.77Z" fill="#0082CA"/>
<path d="M170.75 188.2L178.324 111.579L214.643 211.037L170.75 188.2Z" fill="#222C64"/>
<path d="M261.751 233.223L170.75 188.2L226.562 260.564L261.751 233.223Z" fill="#0082CA"/>
<path d="M230.24 392.924L153.778 420.627L255.582 413.937L230.24 392.924Z" fill="#0082CA"/>
<path d="M108.509 465.404L138.095 529.267L136.096 449.778L108.509 465.404Z" fill="#0082CA"/>
<path d="M153.778 420.627L108.509 465.403L196.469 417.832L153.778 420.627Z" fill="#222C64"/>
<path d="M280.302 433.255L309.424 452.79L206.65 474.368L280.302 433.255Z" fill="#0082CA"/>
<path d="M182.263 524.719L249.24 569.669L204.955 503.547L182.263 524.719Z" fill="#0082CA"/>
<path d="M206.65 474.368L182.263 524.72L247.154 466.07L206.65 474.368Z" fill="#222C64"/>
<path d="M204.955 503.547L246.14 517.493L249.239 569.669L204.955 503.547Z" fill="#00C4B3"/>
<path d="M81.4869 366.379L195.962 340.183L257.074 410.823L81.4869 366.379Z" fill="#222C64"/>
<path d="M93.6078 127.567L105.932 231.775L78.4023 192.574L93.6078 127.567Z" fill="#0082CA"/>
<path d="M78.4023 192.574L139.253 277.102L108.321 274.93L78.4023 192.574Z" fill="#222C64"/>
<path d="M108.321 274.93L203.536 281.939L206.288 317.462L108.321 274.93Z" fill="#0082CA"/>
<path d="M0.304138 340.603L64.0658 386.567C64.0658 386.567 33.2349 391.896 32.5398 391.027C31.8446 390.158 0.304138 340.603 0.304138 340.603Z" fill="#0082CA"/>
<path d="M32.5397 391.013L134.083 377.328L96.4462 403.771L32.5397 391.013Z" fill="#222C64"/>
<path d="M96.4462 403.77L177.035 347.076L205.187 375.141L96.4462 403.77Z" fill="#0082CA"/>
<path d="M170.75 188.2L178.324 111.579L214.643 211.037L170.75 188.2Z" fill="#222C64"/>
<path d="M261.751 233.223L170.75 188.2L226.562 260.564L261.751 233.223Z" fill="#0082CA"/>
<path d="M280.302 433.255L309.424 452.79L206.65 474.368L280.302 433.255Z" fill="#0082CA"/>
<path d="M182.263 524.719L249.24 569.669L204.955 503.547L182.263 524.719Z" fill="#0082CA"/>
<path d="M206.65 474.368L182.263 524.72L247.154 466.07L206.65 474.368Z" fill="#222C64"/>
<path d="M204.955 503.547L246.14 517.493L249.239 569.669L204.955 503.547Z" fill="#00C4B3"/>
<path d="M81.4869 366.379L195.962 340.183L257.074 410.823L81.4869 366.379Z" fill="#222C64"/>
<path d="M485.909 0.897949L462.869 23.7062L405.986 14.134L485.909 0.897949Z" fill="black"/>
<path d="M485.909 0.897949L462.869 23.7062L486.677 43.8933L485.909 0.897949Z" fill="#00833E"/>
<path d="M549.772 40.6205L485.909 0.897949L486.677 43.8933L549.772 40.6205Z" fill="#00BC70"/>
<path d="M549.772 40.6201L401.99 48.3966L493.961 97.8506L549.772 40.6201Z" fill="#00C4B3"/>
<path d="M541.822 165.826L549.772 40.6201L561.589 111.579L541.822 165.826Z" fill="#0082CA"/>
<path d="M549.772 40.6201L493.961 97.8506L542.126 164.335L549.772 40.6201Z" fill="#1A214C"/>
<path d="M254.004 0.897949L277.044 23.7062L333.941 14.134L254.004 0.897949Z" fill="black"/>
<path d="M254.004 0.897949L277.044 23.7062L253.236 43.8933L254.004 0.897949Z" fill="#00833E"/>
<path d="M190.141 40.6205L254.004 0.897949L253.236 43.8933L190.141 40.6205Z" fill="#00BC70"/>
<path d="M190.141 40.6201L337.924 48.3966L245.967 97.8506L190.141 40.6201Z" fill="#00C4B3"/>
<path d="M198.091 165.826L190.141 40.6201L178.324 111.579L198.091 165.826Z" fill="#0082CA"/>
<path d="M190.141 40.6201L245.967 97.8506L197.787 164.335L190.141 40.6201Z" fill="#1A214C"/>
<path d="M606.09 336.157L447.533 330.104L446.853 329.858L464.39 215.035L606.09 336.157Z" fill="#00BC70"/>
<path d="M606.09 336.157L426.825 460.987L446.853 329.857L447.533 330.104L606.09 336.157Z" fill="#1A214C"/>
<path d="M464.39 215.034L446.853 329.857L369.189 215.005L464.39 215.034Z" fill="#00C4B3"/>
<path d="M446.853 329.857L369.594 459.799L426.825 460.987L446.853 329.857Z" fill="#0082CA"/>
<path d="M134.59 336.157L293.147 330.104L293.828 329.858L276.291 215.035L134.59 336.157Z" fill="#1C9AD6"/>
<path d="M134.59 336.157L313.856 460.987L293.828 329.857L293.147 330.104L134.59 336.157Z" fill="#00587F"/>
<path d="M276.291 215.034L293.828 329.857L371.492 215.005L276.291 215.034Z" fill="#0082CA"/>
<path d="M293.828 329.857L369.638 459.799L313.856 460.987L293.828 329.857Z" fill="#00C4B3"/>
<path d="M293.828 329.857H446.853L371.492 215.005C371.492 215.005 290.092 329.857 293.828 329.857Z" fill="#00587F"/>
<path d="M293.828 329.857H446.853L369.638 459.799L293.828 329.857Z" fill="#222C64"/>
</svg>
