<svg width="99" height="92" viewBox="0 0 99 92" fill="none" xmlns="http://www.w3.org/2000/svg">
<path fill-rule="evenodd" clip-rule="evenodd" d="M94.6542 48.803L30.2419 85.9916C28.631 86.9213 26.5535 86.3651 25.6238 84.7542L1.95833 43.7657C1.02862 42.153 1.58476 40.0755 3.1957 39.1458L67.608 1.95726C69.2189 1.02755 71.2964 1.58369 72.2261 3.19632L95.8915 44.1849C96.8213 45.7958 96.2651 47.8733 94.6542 48.803Z" stroke="#00833F" stroke-width="3" stroke-linecap="round" stroke-linejoin="round"/>
<path fill-rule="evenodd" clip-rule="evenodd" d="M78.9877 14.9059L8.71989 55.4753L5.33911 49.6197L75.6069 9.05042L78.9877 14.9059Z" stroke="#00833F" stroke-width="3" stroke-linecap="round" stroke-linejoin="round"/>
<path fill-rule="evenodd" clip-rule="evenodd" d="M93.5012 89.5902H19.1241C17.2646 89.5902 15.7433 88.0689 15.7433 86.2095V38.8786C15.7433 37.0175 17.2646 35.4978 19.1241 35.4978H93.5012C95.3606 35.4978 96.882 37.0175 96.882 38.8786V86.2095C96.882 88.0689 95.3606 89.5902 93.5012 89.5902Z" fill="white"/>
<path fill-rule="evenodd" clip-rule="evenodd" d="M93.5012 89.5902H19.1241C17.2646 89.5902 15.7433 88.0689 15.7433 86.2095V38.8786C15.7433 37.0175 17.2646 35.4978 19.1241 35.4978H93.5012C95.3606 35.4978 96.882 37.0175 96.882 38.8786V86.2095C96.882 88.0689 95.3606 89.5902 93.5012 89.5902Z" stroke="#00833F" stroke-width="3" stroke-linecap="round" stroke-linejoin="round"/>
<path fill-rule="evenodd" clip-rule="evenodd" d="M76.7665 64.6008C75 64.6008 73.4483 65.5052 72.5405 66.8761C71.6311 65.5052 70.0793 64.6008 68.3145 64.6008C65.5136 64.6008 63.2434 66.871 63.2434 69.672C63.2434 72.473 65.5136 74.7432 68.3145 74.7432C70.0793 74.7432 71.6311 73.8388 72.5405 72.4679C73.4483 73.8388 75 74.7432 76.7665 74.7432C79.5675 74.7432 81.8377 72.473 81.8377 69.672C81.8377 66.871 79.5675 64.6008 76.7665 64.6008Z" stroke="#00833F" stroke-width="3" stroke-linecap="round" stroke-linejoin="round"/>
<path d="M25.5942 64.6009H45.8789" stroke="#00833F" stroke-width="3" stroke-linecap="round" stroke-linejoin="round"/>
<path d="M25.5942 74.7432H51.5942" stroke="#00833F" stroke-width="3" stroke-linecap="round" stroke-linejoin="round"/>
</svg>
