<svg width="196" height="50" viewBox="0 0 196 50" fill="none" xmlns="http://www.w3.org/2000/svg">
<path fill-rule="evenodd" clip-rule="evenodd" d="M0 13.5407L23.6736 0L46.8116 13.6739V18.4329H43.1197V35.2569H3.62713V18.4329H0V13.5407ZM8.43793 30.9709H38.5738V14.0818L23.6736 5.09902L8.43793 14.0818V30.9709Z" fill="#4D4B53"/>
<rect x="15.7026" y="16.2954" width="15.7026" height="4.14787" fill="#4D4B53"/>
<rect x="15.7026" y="22.5171" width="15.7026" height="4.14787" fill="#4D4B53"/>
<path fill-rule="evenodd" clip-rule="evenodd" d="M23.9984 42.6636H26.809C28.8134 42.6636 30.2202 43.2717 30.2202 45.4271C30.2202 47.5226 28.9478 47.9965 26.7404 47.9965H23.9984V42.6636ZM25.468 46.8546H26.6603C27.8041 46.8546 28.6132 46.6462 28.6132 45.43C28.6132 44.348 27.744 43.8084 26.8062 43.8084H25.468V46.8546Z" fill="#4D4B53"/>
<path fill-rule="evenodd" clip-rule="evenodd" d="M44.3822 44.3492C44.3822 45.2347 43.9194 45.639 42.929 45.7728L44.4415 47.9965H42.8557L41.3376 45.7728H39.9691V47.9937H38.5159V42.6636H42.3365C43.7868 42.6636 44.3822 43.1362 44.3822 44.3492ZM39.9522 44.6339H42.0656C42.7908 44.6339 42.9883 44.6339 42.977 44.2296C42.977 43.8936 42.7259 43.8253 42.1305 43.8253H39.9522V44.6339Z" fill="#4D4B53"/>
<path d="M20.8077 45.9706L17.9787 42.6636H16.2952V47.9965H17.7111V44.7551L20.5371 47.9965H22.2207V42.6636H20.8077V45.9706Z" fill="#4D4B53"/>
<path d="M4.15269 42.6636H2.6665V47.9965H7.99948V46.8495L4.15269 46.781V42.6636Z" fill="#4D4B53"/>
<path d="M9.48083 47.9965H14.5175V46.8495H10.9846V45.7024H13.9278V44.621H10.9846V43.8106H14.5175V42.6636H9.48083V47.9965Z" fill="#4D4B53"/>
<path d="M31.9978 47.9965L37.0345 47.9281V46.8495H33.4559V45.7024H36.5022V44.621H33.4559V43.8106H37.0345V42.6636H31.9978V47.9965Z" fill="#4D4B53"/>
<path fill-rule="evenodd" clip-rule="evenodd" d="M14.3955 36.7383H15.5574L16.8877 41.4787H15.8304L15.54 40.4093H14.3171L14.0266 41.4787H13.0361L14.3955 36.7383ZM14.9503 37.7513L14.5437 39.622H15.4267L14.9503 37.7513Z" fill="#4D4B53"/>
<path fill-rule="evenodd" clip-rule="evenodd" d="M8.67436 39.6326C8.70255 40.0657 8.61431 40.4984 8.41924 40.8837L9.18459 41.1506L9.12217 41.4787C6.51946 41.4787 5.62927 41.412 5.62927 39.8328V38.5816C5.62927 37.3972 6.00923 36.7383 7.15182 36.7383C8.41924 36.7383 8.67436 37.5334 8.67436 38.6456V39.6326ZM7.14367 40.8837C7.6539 40.8837 7.71632 40.6863 7.71632 39.83L7.71361 38.6011C7.71361 37.678 7.65119 37.5473 7.2061 37.5473C6.63345 37.5473 6.57102 37.8031 6.57102 38.6595V39.7716C6.57102 40.6196 6.69858 40.8837 7.14367 40.8837Z" fill="#4D4B53"/>
<path d="M34.2214 40.7307C33.8151 40.7307 33.5423 40.4574 33.4059 39.9828L32.5904 40.118C32.5904 40.8659 33.0663 41.4786 34.1517 41.4786C35.0223 41.4786 35.8494 40.8659 35.8494 40.118C35.8494 38.9674 33.6758 38.4152 33.6758 37.6673C33.6758 37.394 33.9486 37.2588 34.2185 37.2588C34.6248 37.2588 34.8308 37.5321 35.0339 37.9405L35.713 37.6673C35.6463 36.9855 35.1703 36.4419 34.1517 36.4419C33.3362 36.4419 32.6571 36.8504 32.6571 37.6673C32.6571 39.0278 34.8308 39.3701 34.8308 40.2561C34.8308 40.5955 34.6306 40.7307 34.2214 40.7307Z" fill="#4D4B53"/>
<path fill-rule="evenodd" clip-rule="evenodd" d="M25.1835 38.28C25.1835 36.9855 25.7935 36.4419 26.813 36.4419C28.1085 36.4419 28.4425 36.9194 28.4425 38.1419V39.6405C28.4425 40.9349 28.1027 41.4786 26.813 41.4786C25.5233 41.4786 25.1835 40.9953 25.1835 39.8448V38.28ZM26.8101 40.7307C27.2196 40.7307 27.423 40.4574 27.423 39.6405V38.2109C27.423 37.6673 27.3562 37.1898 26.8101 37.1898C26.264 37.1898 26.1972 37.5982 26.1972 38.2109V39.7096C26.1972 40.3913 26.2669 40.7307 26.8101 40.7307Z" fill="#4D4B53"/>
<path d="M43.053 37.1914C43.4951 37.1914 43.7459 37.5302 43.8106 38.0069L44.4414 37.7341C44.3794 36.9186 43.8753 36.4419 42.991 36.4419C41.7294 36.4419 41.4786 37.1885 41.4786 38.2079V39.6437C41.4786 41.0794 41.8561 41.4786 43.1177 41.4786C44.0936 41.4786 44.3794 40.9847 44.3794 40.4592V38.9143H43.0557V39.6609H43.4817V40.2036C43.4817 40.6114 43.355 40.8153 43.0395 40.8153C42.4087 40.8153 42.3467 40.3386 42.3467 39.6666V38.5783C42.3602 37.7484 42.4222 37.1914 43.053 37.1914Z" fill="#4D4B53"/>
<path d="M31.9979 36.7466H31.1152V39.4215C31.1152 40.4666 31.0533 40.7259 30.5474 40.7259C30.0415 40.7259 29.9796 40.3343 29.9796 39.347V36.7383H29.0351V39.4132C29.0351 40.9796 29.3042 41.4787 30.6174 41.4787C31.6238 41.4787 31.9952 40.9134 31.9952 39.5483L31.9979 36.7466Z" fill="#4D4B53"/>
<path d="M40.8861 41.4787V36.7383H40.1293V39.6756L39.1192 36.7383H37.9233V41.4787H38.6802V38.2733L39.7495 41.4787H40.8861Z" fill="#4D4B53"/>
<path d="M9.7771 36.7411V39.5703C9.7771 40.8861 9.90651 41.4787 11.1952 41.4787C12.6765 41.4787 12.7399 40.7554 12.7399 39.4368V36.7383H11.8395V39.5035C11.8395 40.4243 11.7101 40.6886 11.2585 40.6886C10.7436 40.6886 10.6775 40.4243 10.6775 39.3728V36.7411H9.7771Z" fill="#4D4B53"/>
<path d="M24.5909 41.4787V36.7383H23.6709V38.5385H22.551V36.7383H21.6282V41.4787H22.551V39.3399H23.6709V41.4787H24.5909Z" fill="#4D4B53"/>
<path d="M5.03671 37.4719V36.7383H2.6665V41.4787H5.03671V40.7422H3.58982V39.4076H4.90722V38.7389H3.58982V37.4719H5.03671Z" fill="#4D4B53"/>
<path d="M17.184 36.7383V41.4787H19.258V40.7422H17.9389V36.7383H17.184Z" fill="#4D4B53"/>
<rect x="36.1457" y="36.7383" width="0.888829" height="4.74042" fill="#4D4B53"/>
<rect x="87" width="107.657" height="48" stroke="#4D4B53" stroke-width="2.63"/>
<rect x="91.1143" y="4.11426" width="99.4286" height="40.4571" stroke="#4D4B53" stroke-width="1.75"/>
<path d="M118.96 25.6529L118.876 16.457H122.657V31.5427H119.23L113.325 22.4501L113.405 31.5427H109.629V16.457H113.03L118.96 25.6529Z" fill="#4D4B53"/>
<path d="M140.486 26.2513C139.637 29.7919 136.452 32.2723 132.815 32.2253C129.953 32.306 127.273 30.8268 125.814 28.3615C124.355 25.8962 124.347 22.8328 125.793 20.3598C127.239 17.8869 129.911 16.3935 132.773 16.4591C136.451 16.4011 139.667 18.9272 140.486 22.5162H136.422C135.879 20.9397 134.403 19.8763 132.737 19.8617C130.142 19.8617 128.678 22.1422 128.678 24.2981C128.678 26.5942 130.235 28.8175 132.758 28.8175C135.176 28.8175 136.162 26.7812 136.391 26.2513H140.455" fill="#4D4B53"/>
<path d="M146.408 16.457V25.7963C146.381 26.4278 146.471 27.0588 146.673 27.6567C146.953 28.3581 147.645 28.7958 148.387 28.7402C149.105 28.825 149.792 28.4153 150.07 27.736C150.277 27.1103 150.361 26.4496 150.319 25.791V16.457H154.2V25.7963C154.2 28.3861 153.644 29.5383 152.683 30.5531C151.554 31.6864 150.013 32.2914 148.429 32.2233C147.322 32.2233 145.312 31.9537 144.06 30.5742C142.808 29.1948 142.543 28.0901 142.543 25.8174V16.457H146.423" fill="#4D4B53"/>
<path fill-rule="evenodd" clip-rule="evenodd" d="M155.571 31.5427H159.754H159.775L160.466 29.3611H165.721L166.438 31.5427H170.657L164.87 16.457H161.549L155.571 31.5427ZM161.415 26.3027L163.045 21.0421L164.741 26.3027H161.415Z" fill="#4D4B53"/>
<path d="M107.718 7.4213L106.886 6.17139H107.335L107.926 7.0932L108.504 6.17139H108.943L108.111 7.4213V8.22853H107.718V7.4213Z" fill="#4D4B53"/>
<path fill-rule="evenodd" clip-rule="evenodd" d="M108.584 6.95074C108.363 7.07581 108.238 7.30468 108.26 7.54265C108.238 7.78061 108.363 8.00948 108.584 8.13456C108.804 8.25963 109.082 8.25963 109.302 8.13456C109.522 8.00948 109.648 7.78061 109.626 7.54265C109.648 7.30468 109.522 7.07581 109.302 6.95074C109.082 6.82567 108.804 6.82567 108.584 6.95074ZM108.945 7.10597C109.21 7.10597 109.328 7.32431 109.328 7.54265C109.328 7.75662 109.215 7.97932 108.945 7.97932C108.676 7.97932 108.557 7.75662 108.557 7.54265C108.557 7.32868 108.68 7.10597 108.945 7.10597Z" fill="#4D4B53"/>
<path d="M111.686 8.1956H111.346V8.00837C111.249 8.14 111.083 8.2224 110.901 8.22836C110.49 8.22836 110.314 8.05518 110.314 7.70413V6.85693H110.66V7.68073C110.66 7.91476 110.77 7.99901 110.962 7.99901C111.252 7.99901 111.346 7.83987 111.346 7.63392V6.85693H111.686V8.1956Z" fill="#4D4B53"/>
<path d="M111.694 6.89387H111.936V7.14784C111.985 6.9809 112.121 6.86524 112.277 6.85693H112.371V7.13861H112.261C112.084 7.13861 111.944 7.30022 111.944 7.60037V8.22836H111.686V6.89387" fill="#4D4B53"/>
<path d="M114.082 7.76971C114.082 7.93319 114.248 7.99676 114.426 7.99676C114.603 7.99676 114.781 7.97406 114.77 7.8242C114.759 7.67434 114.512 7.65618 114.27 7.61077C114.028 7.56535 113.775 7.48815 113.775 7.22477C113.775 6.96138 114.135 6.85693 114.415 6.85693C114.695 6.85693 115.017 6.96592 115.061 7.25201H114.706C114.673 7.11578 114.544 7.07945 114.394 7.07945C114.243 7.07945 114.114 7.07945 114.114 7.21568C114.114 7.35192 114.361 7.37917 114.614 7.42458C114.867 7.46999 115.114 7.54719 115.114 7.80603C115.114 8.06488 114.743 8.22836 114.426 8.22836C114.109 8.22836 113.754 8.08305 113.743 7.77425H114.082" fill="#4D4B53"/>
<path fill-rule="evenodd" clip-rule="evenodd" d="M116.41 7.99614C116.334 7.99614 116.334 7.9738 116.334 7.90232L116.329 7.88892V7.22773C116.329 6.95969 116.092 6.85693 115.788 6.85693C115.484 6.85693 115.166 6.97309 115.166 7.30368H115.461C115.475 7.16072 115.636 7.09818 115.76 7.09818C115.763 7.09818 115.765 7.09817 115.768 7.09817C115.89 7.09807 116.04 7.09794 116.04 7.27241C116.04 7.41971 115.936 7.42738 115.759 7.44054C115.722 7.44334 115.68 7.4464 115.636 7.45111C115.385 7.47791 115.114 7.53152 115.114 7.84871C115.117 7.96035 115.171 8.06547 115.261 8.1373C115.352 8.20912 115.472 8.2407 115.589 8.22398C115.762 8.22794 115.931 8.17235 116.063 8.06762C116.087 8.18377 116.172 8.22398 116.291 8.22398C116.357 8.22092 116.422 8.21042 116.486 8.19271V7.99614H116.41ZM115.66 7.60747C115.787 7.60332 115.913 7.57759 116.03 7.53152V7.74149C116.03 7.92019 115.798 7.98274 115.693 7.98274C115.589 7.98274 115.418 7.9604 115.418 7.81744C115.418 7.67448 115.532 7.60747 115.66 7.60747Z" fill="#4D4B53"/>
<path d="M116.486 6.85693H116.822L117.179 7.91188H117.189L117.53 6.85693H117.857L117.347 8.22836H117.001L116.486 6.85693Z" fill="#4D4B53"/>
<path fill-rule="evenodd" clip-rule="evenodd" d="M119.173 6.17139H118.543V6.48386H119.173V6.17139ZM119.173 6.73905H118.543V8.22853H119.173V6.73905Z" fill="#4D4B53"/>
<path d="M119.245 6.89631H119.571V7.0879C119.67 6.94332 119.855 6.85584 120.054 6.85981C120.202 6.84495 120.351 6.88821 120.457 6.97719C120.563 7.06617 120.614 7.19104 120.597 7.31599V8.22836H120.255V7.40723C120.255 7.20195 120.151 7.11527 119.951 7.11527C119.846 7.11631 119.746 7.15361 119.675 7.21838C119.604 7.28314 119.569 7.36963 119.576 7.45741V8.22836H119.229V6.89631" fill="#4D4B53"/>
<path fill-rule="evenodd" clip-rule="evenodd" d="M121.277 8.91408C121.725 8.91408 121.971 8.69732 121.971 8.26886H121.966V6.89777H121.656V7.09436C121.574 6.9411 121.413 6.8492 121.242 6.85745C121.062 6.8596 120.89 6.93848 120.769 7.0752C120.648 7.21191 120.587 7.39415 120.602 7.57827C120.602 7.99162 120.784 8.33943 121.233 8.33943C121.408 8.33835 121.569 8.24242 121.656 8.08739V8.30919C121.67 8.41131 121.635 8.51398 121.564 8.58635C121.492 8.65872 121.391 8.69236 121.292 8.67716C121.139 8.67716 120.996 8.64692 120.957 8.46545H120.647C120.671 8.79814 120.991 8.91408 121.277 8.91408ZM121.277 7.11452C121.548 7.11452 121.656 7.34136 121.656 7.5934C121.656 7.84039 121.538 8.09747 121.277 8.09747C121.016 8.09747 120.903 7.86056 120.903 7.6186C120.903 7.37664 121.006 7.11452 121.277 7.11452Z" fill="#4D4B53"/>
<path d="M123.001 7.76971C123.001 7.93319 123.168 7.99676 123.346 7.99676C123.523 7.99676 123.695 7.97406 123.69 7.8242C123.684 7.67434 123.432 7.65618 123.184 7.61077C122.937 7.56535 122.689 7.48815 122.689 7.22477C122.689 6.96138 123.05 6.85693 123.329 6.85693C123.609 6.85693 123.932 6.96592 123.975 7.25201H123.62C123.588 7.11578 123.459 7.07945 123.308 7.07945C123.157 7.07945 123.034 7.07945 123.034 7.21568C123.034 7.35192 123.281 7.37917 123.528 7.42458C123.776 7.46999 124.029 7.54719 124.029 7.80603C124.029 8.06488 123.658 8.22836 123.34 8.22836C123.023 8.22836 122.663 8.08305 122.657 7.77425H123.001" fill="#4D4B53"/>
<path d="M124.73 6.746H124.915V6.62636C124.915 6.24663 125.061 6.179 125.227 6.179C125.284 6.16885 125.342 6.16885 125.4 6.179V6.43389C125.362 6.42856 125.324 6.42856 125.286 6.43389C125.219 6.43389 125.164 6.46511 125.164 6.58995V6.7408H125.376V6.98529H125.148V8.22853H124.9V6.99049H124.714V6.746" fill="#4D4B53"/>
<path fill-rule="evenodd" clip-rule="evenodd" d="M125.814 7.87241C125.741 7.7989 125.705 7.7 125.717 7.60083V7.60998H126.759C126.81 7.36855 126.705 7.12155 126.489 6.97713C126.273 6.83271 125.985 6.81718 125.752 6.93734C125.52 7.05751 125.384 7.29147 125.404 7.53679C125.382 7.71655 125.447 7.89614 125.58 8.02879C125.713 8.16143 125.903 8.23398 126.099 8.22754C126.407 8.2426 126.68 8.04838 126.744 7.77009H126.446C126.401 7.90948 126.256 7.99983 126.099 7.98509C125.991 7.98696 125.887 7.94592 125.814 7.87241ZM126.089 7.07476C126.289 7.0845 126.446 7.23734 126.446 7.42242H125.717C125.714 7.33027 125.752 7.24108 125.822 7.17546C125.893 7.10985 125.989 7.07348 126.089 7.07476Z" fill="#4D4B53"/>
<path fill-rule="evenodd" clip-rule="evenodd" d="M128.518 8.18637H128.805L128.829 8.21188V6.17139H128.528V6.91617C128.417 6.75513 128.236 6.66793 128.05 6.68661C127.749 6.68661 127.457 6.93657 127.457 7.4467C127.457 7.8854 127.667 8.22718 128.097 8.22718C128.268 8.24083 128.431 8.14985 128.518 7.99253V8.18637ZM128.537 7.48751C128.537 7.73747 128.427 7.99763 128.155 7.99763C127.892 7.99763 127.777 7.72726 127.777 7.48751C127.777 7.24775 127.935 6.97738 128.164 6.97738C128.394 6.97738 128.537 7.23754 128.537 7.48751Z" fill="#4D4B53"/>
<path fill-rule="evenodd" clip-rule="evenodd" d="M129.242 7.88385C129.168 7.81275 129.133 7.71708 129.144 7.62116H130.178C130.248 7.38124 130.148 7.12744 129.925 6.97884C129.703 6.83023 129.401 6.8163 129.162 6.9436C128.923 7.07089 128.795 7.31413 128.836 7.55921C128.815 7.73309 128.879 7.90681 129.012 8.03511C129.146 8.16341 129.336 8.23358 129.532 8.22736C129.841 8.24386 130.117 8.05513 130.178 7.78488H129.875C129.829 7.91862 129.684 8.00532 129.527 7.99284C129.419 7.99465 129.315 7.95496 129.242 7.88385ZM129.5 7.11451C129.701 7.11451 129.865 7.26012 129.865 7.43974H129.134C129.134 7.26012 129.298 7.11451 129.5 7.11451Z" fill="#4D4B53"/>
<path d="M130.886 6.89387H131.132V7.14784C131.182 6.97937 131.319 6.86336 131.477 6.85693H131.571V7.13861H131.461C131.284 7.13861 131.14 7.30022 131.14 7.60037V8.22836H130.886V6.89387Z" fill="#4D4B53"/>
<path fill-rule="evenodd" clip-rule="evenodd" d="M132.867 7.99614C132.796 7.99614 132.796 7.9738 132.796 7.90232L132.8 7.88892V7.22773C132.8 6.95969 132.554 6.85693 132.255 6.85693C131.956 6.85693 131.638 6.97309 131.638 7.30368H131.918C131.932 7.16072 132.103 7.09818 132.222 7.09818C132.224 7.09818 132.227 7.09817 132.23 7.09817C132.348 7.09807 132.502 7.09793 132.502 7.27241C132.502 7.41952 132.395 7.42736 132.218 7.44049C132.179 7.44331 132.138 7.44637 132.093 7.45111C131.842 7.47791 131.571 7.53152 131.571 7.84871C131.574 7.96035 131.628 8.06547 131.719 8.1373C131.809 8.20912 131.929 8.2407 132.046 8.22398C132.219 8.22877 132.388 8.17308 132.52 8.06762C132.539 8.18377 132.63 8.22398 132.748 8.22398C132.814 8.22092 132.88 8.21042 132.943 8.19271V7.99614H132.867ZM132.131 7.60747C132.257 7.60288 132.381 7.57716 132.497 7.53152V7.74149C132.497 7.92019 132.269 7.98274 132.165 7.98274C132.06 7.98274 131.889 7.9604 131.889 7.81744C131.889 7.67448 132.003 7.60747 132.131 7.60747Z" fill="#4D4B53"/>
<rect x="133.464" y="6.17139" width="0.329243" height="2.05714" fill="#4D4B53"/>
<rect x="134.15" y="6.17139" width="0.329243" height="2.05714" fill="#4D4B53"/>
<path d="M134.324 6.85693H134.661L135.027 7.95526L135.364 6.85693H135.686L135.144 8.39664C135.046 8.65839 134.968 8.90988 134.656 8.90988C134.586 8.91548 134.516 8.91548 134.446 8.90988V8.63786C134.495 8.64251 134.544 8.64251 134.592 8.63786C134.739 8.63786 134.768 8.55575 134.807 8.43257L134.841 8.31966L134.314 6.85693" fill="#4D4B53"/>
<path fill-rule="evenodd" clip-rule="evenodd" d="M137.687 6.17139H137.057V6.48386H137.687V6.17139ZM137.687 6.73905H137.057V8.22853H137.687V6.73905Z" fill="#4D4B53"/>
<path d="M137.754 6.89631H138.081V7.0879C138.18 6.94332 138.366 6.85584 138.566 6.85981C138.715 6.84495 138.864 6.88821 138.971 6.97719C139.077 7.06617 139.129 7.19104 139.111 7.31599V8.22836H138.767V7.40723C138.767 7.20195 138.664 7.11527 138.462 7.11527C138.357 7.11631 138.257 7.15361 138.186 7.21838C138.115 7.28314 138.079 7.36963 138.086 7.45741V8.22836H137.743V6.89631" fill="#4D4B53"/>
<path d="M139.454 7.77425C139.454 7.93773 139.622 8.0013 139.805 8.0013C139.989 8.0013 140.156 7.9786 140.146 7.82874C140.135 7.67888 139.892 7.66072 139.638 7.61531C139.384 7.56989 139.141 7.47453 139.141 7.22477C139.141 6.975 139.503 6.85693 139.789 6.85693C140.075 6.85693 140.394 6.96592 140.432 7.25201H140.081C140.048 7.11578 139.913 7.07945 139.762 7.07945C139.611 7.07945 139.487 7.07945 139.487 7.21568C139.487 7.35192 139.735 7.37917 139.989 7.42458C140.243 7.46999 140.486 7.54719 140.486 7.80603C140.486 8.06488 140.113 8.22836 139.8 8.22836C139.487 8.22836 139.12 8.08305 139.114 7.77425H139.454Z" fill="#4D4B53"/>
<path d="M141.846 8.1956H141.509V8.00837C141.413 8.14 141.248 8.2224 141.068 8.22836C140.66 8.22836 140.486 8.05518 140.486 7.70413V6.85693H140.834V7.68073C140.834 7.91476 140.948 7.99901 141.133 7.99901C141.416 7.99901 141.514 7.83987 141.514 7.63392V6.85693H141.857V8.1956" fill="#4D4B53"/>
<path d="M142.547 6.89387H142.789V7.14784C142.838 6.9809 142.974 6.86524 143.13 6.85693H143.229V7.13861H143.118C142.941 7.13861 142.802 7.30022 142.802 7.60037V8.22836H142.543V6.89387" fill="#4D4B53"/>
<path fill-rule="evenodd" clip-rule="evenodd" d="M143.643 7.87225C143.57 7.79875 143.534 7.69986 143.546 7.60071V7.60986H144.587C144.639 7.36847 144.533 7.12151 144.317 6.97711C144.101 6.83271 143.814 6.81719 143.581 6.93733C143.349 7.05748 143.213 7.2914 143.233 7.53668C143.21 7.71676 143.273 7.89726 143.407 8.03027C143.541 8.16328 143.731 8.23534 143.928 8.22733C144.236 8.24438 144.511 8.0493 144.572 7.76994H144.275C144.229 7.90819 144.084 7.99781 143.928 7.98491C143.82 7.98678 143.716 7.94575 143.643 7.87225ZM144.106 7.09672C144.225 7.16622 144.291 7.29287 144.275 7.42233H143.546C143.529 7.29287 143.595 7.16622 143.715 7.09672C143.834 7.02722 143.986 7.02722 144.106 7.09672Z" fill="#4D4B53"/>
<path fill-rule="evenodd" clip-rule="evenodd" d="M146.347 8.18733H146.628L146.657 8.21285V6.17139H146.356V6.91652C146.247 6.75373 146.065 6.66603 145.878 6.68686C145.577 6.68686 145.286 6.93694 145.286 7.4473C145.286 7.88622 145.496 8.22816 145.926 8.22816C146.095 8.23501 146.255 8.1457 146.347 7.99339V8.18733ZM146.366 7.48813C146.366 7.73821 146.256 7.9985 145.983 7.9985C145.721 7.9985 145.606 7.728 145.606 7.48813C145.606 7.24826 145.754 6.97777 145.988 6.97777C146.222 6.97777 146.366 7.23805 146.366 7.48813Z" fill="#4D4B53"/>
<path d="M147.343 6.64017H147.538V6.17139H147.793V6.64017H148.024V6.89938H147.793V7.7432C147.793 7.88659 147.793 7.95829 147.919 7.95829C147.955 7.96305 147.992 7.96305 148.029 7.95829V8.22853C147.972 8.22853 147.919 8.22853 147.862 8.22853C147.594 8.22853 147.546 8.08514 147.542 7.82593V6.89938H147.347V6.64017" fill="#4D4B53"/>
<path fill-rule="evenodd" clip-rule="evenodd" d="M149.4 6.85693C149.021 6.85693 148.714 7.16394 148.714 7.54265C148.714 7.92136 149.021 8.22836 149.4 8.22836C149.779 8.22836 150.086 7.92136 150.086 7.54265C150.086 7.16394 149.779 6.85693 149.4 6.85693ZM149.4 7.06646C149.671 7.06646 149.79 7.30455 149.79 7.54265C149.79 7.77598 149.667 8.01884 149.4 8.01884C149.133 8.01884 149.014 7.77598 149.014 7.54265C149.014 7.30931 149.129 7.06646 149.4 7.06646Z" fill="#4D4B53"/>
<path fill-rule="evenodd" clip-rule="evenodd" d="M152.067 7.99614C151.996 7.99614 151.996 7.9738 151.996 7.90232L151.982 7.88892V7.22773C151.982 6.95969 151.735 6.85693 151.436 6.85693C151.137 6.85693 150.819 6.97309 150.819 7.30368H151.118C151.137 7.16072 151.303 7.09818 151.422 7.09818C151.424 7.09818 151.427 7.09817 151.43 7.09817C151.548 7.09807 151.702 7.09793 151.702 7.27241C151.702 7.41952 151.595 7.42736 151.418 7.44049C151.379 7.44331 151.338 7.44637 151.293 7.45111C151.042 7.47791 150.771 7.53152 150.771 7.84871C150.774 7.96035 150.828 8.06547 150.919 8.1373C151.009 8.20912 151.129 8.2407 151.246 8.22398C151.419 8.2292 151.588 8.17346 151.721 8.06762C151.744 8.18377 151.83 8.22398 151.953 8.22398C152.017 8.22065 152.081 8.21015 152.143 8.19271V7.99614H152.067ZM151.312 7.60747C151.44 7.60313 151.565 7.57741 151.683 7.53152V7.74149C151.683 7.92019 151.45 7.98274 151.346 7.98274C151.241 7.98274 151.07 7.9604 151.07 7.81744C151.07 7.67448 151.184 7.60747 151.312 7.60747Z" fill="#4D4B53"/>
<path d="M152.829 6.64017H153.024V6.17139H153.282V6.64017H153.514V6.89938H153.282V7.7432C153.282 7.88659 153.282 7.95829 153.404 7.95829C153.441 7.96298 153.478 7.96298 153.514 7.95829V8.22853C153.457 8.22853 153.404 8.22853 153.347 8.22853C153.078 8.22853 153.029 8.08514 153.024 7.82593V6.89938H152.829V6.64017" fill="#4D4B53"/>
<rect x="154.721" y="6.17139" width="0.329243" height="2.05714" fill="#4D4B53"/>
<path fill-rule="evenodd" clip-rule="evenodd" d="M155.3 7.87241C155.227 7.7989 155.192 7.7 155.203 7.60083V7.60998H156.244C156.296 7.36855 156.19 7.12155 155.975 6.97713C155.759 6.83271 155.471 6.81718 155.239 6.93734C155.006 7.05751 154.87 7.29147 154.891 7.53679C154.867 7.7169 154.931 7.89743 155.064 8.03046C155.198 8.16349 155.388 8.23556 155.585 8.22754C155.893 8.2426 156.166 8.04838 156.229 7.77009H155.932C155.886 7.90835 155.741 7.99799 155.585 7.98509C155.477 7.98696 155.373 7.94592 155.3 7.87241ZM155.763 7.09675C155.883 7.16627 155.948 7.29294 155.932 7.42242H155.203C155.187 7.29294 155.252 7.16627 155.372 7.09675C155.491 7.02724 155.644 7.02724 155.763 7.09675Z" fill="#4D4B53"/>
<path fill-rule="evenodd" clip-rule="evenodd" d="M158.243 7.99614C158.171 7.99614 158.171 7.9738 158.171 7.90232L158.157 7.88892V7.22773C158.157 6.95969 157.91 6.85693 157.61 6.85693C157.31 6.85693 156.99 6.97309 156.99 7.30368H157.29C157.305 7.16072 157.467 7.09818 157.59 7.09818C157.593 7.09818 157.596 7.09817 157.599 7.09817C157.722 7.09807 157.871 7.09794 157.871 7.27241C157.871 7.41971 157.768 7.42738 157.59 7.44054C157.552 7.44334 157.511 7.4464 157.467 7.45111C157.214 7.47791 156.943 7.53152 156.943 7.84871C156.946 7.96035 156.999 8.06547 157.091 8.1373C157.182 8.20912 157.301 8.2407 157.419 8.22398C157.593 8.22877 157.763 8.17308 157.895 8.06762C157.919 8.18377 158.005 8.22398 158.124 8.22398C158.188 8.221 158.252 8.21049 158.314 8.19271V7.99614H158.243ZM157.49 7.60747C157.617 7.60298 157.741 7.57726 157.857 7.53152V7.74149C157.857 7.92019 157.629 7.98274 157.524 7.98274C157.419 7.98274 157.248 7.9604 157.248 7.81744C157.248 7.67448 157.362 7.60747 157.49 7.60747Z" fill="#4D4B53"/>
<path d="M158.658 7.76971C158.658 7.93319 158.825 7.99676 159.003 7.99676C159.18 7.99676 159.358 7.97406 159.347 7.8242C159.336 7.67434 159.089 7.65618 158.841 7.61077C158.594 7.56535 158.347 7.48815 158.347 7.22477C158.347 6.96138 158.707 6.85693 158.987 6.85693C159.266 6.85693 159.589 6.96592 159.632 7.25201H159.277C159.245 7.11578 159.116 7.07945 158.965 7.07945C158.814 7.07945 158.685 7.07945 158.685 7.21568C158.685 7.35192 158.933 7.37917 159.186 7.42458C159.438 7.46999 159.686 7.54719 159.686 7.80603C159.686 8.06488 159.32 8.22836 158.997 8.22836C158.675 8.22836 158.325 8.08305 158.314 7.77425H158.653" fill="#4D4B53"/>
<path d="M159.686 6.64017H159.882V6.17139H160.139V6.64017H160.371V6.89938H160.139V7.7432C160.139 7.88659 160.139 7.95829 160.265 7.95829C160.301 7.9628 160.336 7.9628 160.371 7.95829V8.22853C160.318 8.22853 160.261 8.22853 160.204 8.22853C159.935 8.22853 159.886 8.08514 159.882 7.82593V6.89938H159.686V6.64017" fill="#4D4B53"/>
<path fill-rule="evenodd" clip-rule="evenodd" d="M162.029 7.28156C162.029 7.54983 162.124 7.70859 162.367 7.71954V6.98593C162.082 6.89285 161.768 6.76146 161.768 6.318C161.773 6.14236 161.843 5.97756 161.96 5.86474C162.077 5.75192 162.23 5.70174 162.381 5.72673V5.48584H162.491V5.72673C162.637 5.70627 162.785 5.7594 162.895 5.87258C163.005 5.98576 163.067 6.14804 163.066 6.318H162.767C162.774 6.23143 162.748 6.14554 162.694 6.08402C162.641 6.0225 162.566 5.99183 162.491 6.00047V6.64102C162.809 6.73409 163.114 6.87096 163.114 7.30894C163.12 7.49831 163.055 7.68158 162.936 7.81241C162.817 7.94323 162.655 8.00907 162.491 7.99328V8.2287H162.381V7.99328C162.211 8.01122 162.043 7.94282 161.921 7.80602C161.798 7.66922 161.734 7.47766 161.744 7.28156H162.029ZM162.381 5.98404C162.191 5.98404 162.082 6.06616 162.082 6.27968C162.082 6.4932 162.229 6.54794 162.381 6.59174V5.98404ZM162.814 7.34179C162.814 7.58815 162.681 7.70312 162.491 7.70312V6.99687C162.652 7.04615 162.814 7.09542 162.814 7.34179Z" fill="#4D4B53"/>
<path d="M163.135 6.51159C163.35 6.51159 163.54 6.4159 163.593 6.17139H163.8V8.22853H163.52V6.77737H163.114V6.51159" fill="#4D4B53"/>
<path fill-rule="evenodd" clip-rule="evenodd" d="M165.171 8.22853C165.745 8.22853 165.857 7.65253 165.857 7.19996C165.857 6.75767 165.739 6.17139 165.171 6.17139C164.603 6.17139 164.486 6.75767 164.486 7.19996C164.486 7.64224 164.598 8.22853 165.171 8.22853ZM165.171 6.43367C165.458 6.43367 165.535 6.78339 165.535 7.19996C165.535 7.61653 165.453 7.96624 165.171 7.96624C164.89 7.96624 164.808 7.61653 164.808 7.19996C164.808 6.78339 164.885 6.43367 165.171 6.43367Z" fill="#4D4B53"/>
<path fill-rule="evenodd" clip-rule="evenodd" d="M167.229 8.22853C167.797 8.22853 167.914 7.65253 167.914 7.19996C167.914 6.75767 167.797 6.17139 167.229 6.17139C166.661 6.17139 166.543 6.75767 166.543 7.19996C166.543 7.64224 166.661 8.22853 167.229 8.22853ZM167.229 6.43367C167.51 6.43367 167.592 6.78339 167.592 7.19996C167.592 7.61653 167.51 7.96624 167.229 7.96624C166.947 7.96624 166.865 7.61653 166.865 7.19996C166.865 6.78339 166.947 6.43367 167.229 6.43367Z" fill="#4D4B53"/>
<path d="M167.99 7.54297H168.525V7.86043C168.525 8.04347 168.31 8.19956 168.017 8.22868V8.08477C168.175 8.05521 168.278 7.96176 168.264 7.86043H168.003V7.54297" fill="#4D4B53"/>
<path fill-rule="evenodd" clip-rule="evenodd" d="M169.283 8.22853C169.853 8.22853 169.971 7.65253 169.971 7.19996C169.971 6.75767 169.853 6.17139 169.283 6.17139C168.713 6.17139 168.6 6.75767 168.6 7.19996C168.6 7.64224 168.713 8.22853 169.283 8.22853ZM169.288 6.43367C169.571 6.43367 169.653 6.78339 169.653 7.19996C169.653 7.61653 169.571 7.96624 169.288 7.96624C169.006 7.96624 168.924 7.61653 168.924 7.19996C168.924 6.78339 169.006 6.43367 169.288 6.43367Z" fill="#4D4B53"/>
<path fill-rule="evenodd" clip-rule="evenodd" d="M171.343 8.22853C171.911 8.22853 172.029 7.65253 172.029 7.19996C172.029 6.75767 171.911 6.17139 171.343 6.17139C170.775 6.17139 170.657 6.75767 170.657 7.19996C170.657 7.64224 170.775 8.22853 171.343 8.22853ZM171.338 6.43367C171.624 6.43367 171.701 6.78339 171.701 7.19996C171.701 7.61653 171.619 7.96624 171.338 7.96624C171.056 7.96624 170.974 7.61653 170.974 7.19996C170.974 6.78339 171.051 6.43367 171.338 6.43367Z" fill="#4D4B53"/>
<path fill-rule="evenodd" clip-rule="evenodd" d="M172.714 8.22853C173.282 8.22853 173.4 7.65253 173.4 7.19996C173.4 6.75767 173.282 6.17139 172.714 6.17139C172.146 6.17139 172.029 6.75767 172.029 7.19996C172.029 7.64224 172.146 8.22853 172.714 8.22853ZM172.714 6.43367C172.996 6.43367 173.078 6.78339 173.078 7.19996C173.078 7.61653 172.996 7.96624 172.714 7.96624C172.433 7.96624 172.351 7.61653 172.351 7.19996C172.351 6.78339 172.433 6.43367 172.714 6.43367Z" fill="#4D4B53"/>
<path fill-rule="evenodd" clip-rule="evenodd" d="M94.4714 11.4256C94.4 11.4256 94.4 11.4033 94.4 11.3321L94.381 11.3143V10.6552C94.381 10.3881 94.1381 10.2856 93.8381 10.2856C93.5381 10.2856 93.2191 10.4014 93.2191 10.7309H93.5191C93.5334 10.5884 93.6953 10.5261 93.8191 10.5261C93.8245 10.5261 93.83 10.5261 93.8356 10.5261C93.9568 10.5257 94.1048 10.5252 94.1048 10.6998C94.1048 10.8507 93.9975 10.8586 93.8177 10.8719C93.78 10.8747 93.7391 10.8777 93.6953 10.8823C93.4429 10.9091 93.1714 10.9625 93.1714 11.2787C93.1742 11.3899 93.228 11.4947 93.3192 11.5663C93.4103 11.6379 93.53 11.6694 93.6476 11.6527C93.8216 11.6579 93.9913 11.6023 94.1238 11.4969C94.1476 11.6126 94.2334 11.6527 94.3572 11.6527C94.4203 11.6503 94.4828 11.6398 94.5429 11.6215V11.4256H94.4714ZM93.7143 11.0337C93.8401 11.0271 93.9639 11.0015 94.081 10.958L94.0857 11.1673C94.0857 11.3455 93.8524 11.4078 93.7476 11.4078C93.6429 11.4078 93.4714 11.39 93.4714 11.243C93.4714 11.0961 93.5857 11.0337 93.7143 11.0337Z" fill="#4D4B53"/>
<path d="M94.5483 10.325H94.8766V10.5166C94.9767 10.372 95.1635 10.2845 95.3636 10.2885C95.5135 10.2737 95.6633 10.3169 95.77 10.4059C95.8768 10.4949 95.9287 10.6197 95.9108 10.7447V11.6571H95.577V10.8359C95.577 10.6307 95.4731 10.544 95.2706 10.544C95.1641 10.5438 95.0623 10.5805 94.9896 10.6454C94.9169 10.7103 94.88 10.7976 94.8876 10.8861V11.6571H94.5428V10.325" fill="#4D4B53"/>
<path fill-rule="evenodd" clip-rule="evenodd" d="M96.9714 11.6162H97.2572L97.2857 11.6417V9.6001H96.981V10.3453C96.8717 10.1833 96.6903 10.0959 96.5048 10.1156C96.2095 10.1156 95.9143 10.3657 95.9143 10.8761C95.9143 11.315 96.1238 11.657 96.5524 11.657C96.722 11.6627 96.8816 11.5714 96.9714 11.4171V11.6162ZM96.9714 10.8914C96.9714 11.1415 96.8619 11.4018 96.5905 11.4018C96.3286 11.4018 96.2143 11.1313 96.2143 10.8914C96.2143 10.6515 96.3619 10.381 96.5953 10.381C96.8286 10.381 96.9714 10.6413 96.9714 10.8914Z" fill="#4D4B53"/>
<path fill-rule="evenodd" clip-rule="evenodd" d="M98.9622 9.6253H98.6572V11.6166H98.9429V11.4149C99.0439 11.588 99.2346 11.6813 99.4271 11.6519C99.8387 11.6519 100.023 11.2889 100.023 10.9007C100.048 10.7064 99.991 10.5103 99.8665 10.3632C99.7419 10.2162 99.5621 10.1327 99.3738 10.1345C99.2084 10.1319 99.0532 10.2175 98.9622 10.3613V9.6253ZM98.9332 10.8906C98.9332 10.5882 99.0591 10.3865 99.3206 10.3865C99.5724 10.3865 99.7031 10.6436 99.7031 10.8906C99.7031 11.1377 99.5675 11.3948 99.3206 11.3948C99.0736 11.3948 98.9332 11.1931 98.9332 10.8906Z" fill="#4D4B53"/>
<path fill-rule="evenodd" clip-rule="evenodd" d="M102.01 11.4256C101.939 11.4256 101.939 11.4033 101.939 11.3321L101.924 11.3143V10.6552C101.924 10.3881 101.678 10.2856 101.379 10.2856C101.08 10.2856 100.762 10.4014 100.762 10.7309H101.061C101.08 10.5884 101.246 10.5261 101.364 10.5261C101.37 10.5261 101.375 10.5261 101.38 10.5261C101.497 10.5257 101.644 10.5252 101.644 10.6998C101.644 10.8507 101.537 10.8586 101.358 10.8719C101.321 10.8747 101.28 10.8777 101.236 10.8823C100.985 10.9091 100.714 10.9625 100.714 11.2787C100.717 11.3899 100.771 11.4947 100.861 11.5663C100.952 11.6379 101.072 11.6694 101.189 11.6527C101.362 11.6575 101.531 11.602 101.663 11.4969C101.683 11.5996 101.786 11.6688 101.896 11.6527C101.96 11.6503 102.024 11.6398 102.086 11.6215V11.4256H102.01ZM101.279 11.0738C101.4 11.0526 101.517 11.0136 101.625 10.958L101.649 11.2074C101.649 11.3855 101.417 11.4479 101.312 11.4479C101.208 11.4479 101.037 11.4301 101.037 11.2831C101.037 11.1362 101.151 11.0738 101.279 11.0738Z" fill="#4D4B53"/>
<path d="M103.138 10.7646C103.117 10.6192 102.973 10.514 102.81 10.5248C102.643 10.5248 102.41 10.6017 102.41 10.9772C102.41 11.1898 102.516 11.4296 102.794 11.4296C102.979 11.4298 103.13 11.3001 103.138 11.1355H103.457C103.447 11.2832 103.371 11.4212 103.247 11.5188C103.122 11.6164 102.959 11.6657 102.794 11.6558C102.598 11.6619 102.408 11.5918 102.273 11.4635C102.138 11.3353 102.072 11.1614 102.091 10.9862C102.066 10.8058 102.13 10.6245 102.268 10.4904C102.405 10.3562 102.601 10.2828 102.804 10.2895C103.124 10.2548 103.415 10.4566 103.457 10.7419H103.138" fill="#4D4B53"/>
<path d="M104.143 9.6001H104.469V10.7719L105.059 10.173H105.457L104.893 10.7198L105.514 11.6572H105.116L104.66 10.9385L104.469 11.126V11.6572H104.143V9.6001Z" fill="#4D4B53"/>
<path fill-rule="evenodd" clip-rule="evenodd" d="M105.922 11.3051C105.849 11.2317 105.814 11.1325 105.827 11.0337H105.832H106.873C106.924 10.7939 106.819 10.5485 106.603 10.405C106.387 10.2616 106.1 10.2462 105.868 10.3655C105.635 10.4849 105.499 10.7173 105.52 10.961C105.495 11.1394 105.556 11.3188 105.688 11.4523C105.819 11.5859 106.008 11.6603 106.204 11.6563C106.511 11.6712 106.785 11.4783 106.848 11.2018H106.551C106.506 11.3385 106.363 11.4278 106.209 11.4154C106.1 11.4188 105.995 11.3785 105.922 11.3051ZM106.204 10.4975C106.405 10.5049 106.563 10.6581 106.561 10.8428H105.832C105.829 10.7513 105.867 10.6627 105.937 10.5975C106.008 10.5323 106.104 10.4962 106.204 10.4975Z" fill="#4D4B53"/>
<path fill-rule="evenodd" clip-rule="evenodd" d="M107.947 11.6153H108.233L108.257 11.6408V9.6001H107.956V10.345C107.846 10.1839 107.664 10.0967 107.478 10.1154C107.177 10.1154 106.886 10.3654 106.886 10.8755C106.886 11.3143 107.096 11.6561 107.526 11.6561C107.698 11.6687 107.861 11.5756 107.947 11.4163V11.6153ZM107.966 10.9163C107.966 11.1663 107.856 11.4265 107.583 11.4265C107.321 11.4265 107.206 11.1561 107.206 10.9163C107.206 10.6766 107.354 10.4062 107.588 10.4062C107.822 10.4062 107.966 10.6664 107.966 10.9163Z" fill="#4D4B53"/>
<path fill-rule="evenodd" clip-rule="evenodd" d="M109.638 9.62026H109.629L109.638 9.6001V9.62026ZM109.638 9.62026V11.6166H109.924V11.4149C110.024 11.588 110.212 11.6813 110.402 11.6519C110.807 11.6519 110.993 11.2889 110.993 10.9007C111.02 10.703 110.963 10.5028 110.837 10.354C110.711 10.2051 110.529 10.1229 110.34 10.1294C110.175 10.1251 110.02 10.2109 109.929 10.3563V9.62026H109.638ZM109.924 10.8654C109.924 10.563 110.058 10.3613 110.311 10.3613C110.559 10.3613 110.688 10.6184 110.688 10.8654C110.688 11.1125 110.559 11.3696 110.311 11.3696C110.063 11.3696 109.924 11.1679 109.924 10.8654Z" fill="#4D4B53"/>
<path d="M111 10.2856H111.336L111.7 11.3788L112.055 10.2856H112.371L111.832 11.8253C111.729 12.087 111.657 12.3385 111.345 12.3385C111.274 12.3442 111.203 12.3442 111.131 12.3385V12.0665C111.18 12.0718 111.229 12.0718 111.277 12.0665C111.418 12.0665 111.457 11.9844 111.491 11.8612L111.525 11.7483L111 10.2856" fill="#4D4B53"/>
<path d="M113.743 10.0757H113.939V9.6001H114.196V10.0757H114.429V10.3301H114.196V11.1761C114.196 11.3199 114.196 11.3918 114.318 11.3918C114.354 11.397 114.389 11.397 114.424 11.3918V11.6572C114.367 11.6572 114.314 11.6572 114.261 11.6572C113.992 11.6572 113.943 11.519 113.939 11.2536V10.3356H113.743V10.0812" fill="#4D4B53"/>
<path d="M114.445 9.6001H114.787V10.3523C114.89 10.2048 115.066 10.1177 115.254 10.1221C115.402 10.1054 115.551 10.1539 115.657 10.2537C115.763 10.3535 115.814 10.4936 115.797 10.6338V11.6572H115.455V10.7361C115.455 10.5059 115.351 10.4086 115.151 10.4086C115.045 10.4084 114.944 10.4496 114.872 10.5224C114.8 10.5952 114.763 10.6931 114.771 10.7924V11.6572H114.429V9.61033" fill="#4D4B53"/>
<path fill-rule="evenodd" clip-rule="evenodd" d="M116.895 11.3078C116.822 11.235 116.787 11.1366 116.801 11.0386L116.805 11.0476H117.841C117.9 10.8056 117.797 10.5548 117.578 10.4078C117.36 10.2608 117.068 10.2452 116.832 10.368C116.597 10.4908 116.462 10.7289 116.49 10.9755C116.468 11.1526 116.532 11.3295 116.665 11.4602C116.797 11.5909 116.985 11.6624 117.18 11.6561C117.487 11.6729 117.76 11.4806 117.821 11.2053H117.525C117.481 11.3427 117.336 11.4317 117.18 11.4172C117.072 11.4205 116.968 11.3806 116.895 11.3078ZM117.175 10.5157C117.376 10.5231 117.533 10.675 117.53 10.8583H116.805C116.803 10.7675 116.841 10.6796 116.91 10.615C116.98 10.5503 117.076 10.5145 117.175 10.5157Z" fill="#4D4B53"/>
<path d="M118.543 10.1795H118.731V10.0547C118.731 9.67484 118.884 9.6072 119.052 9.6072C119.111 9.59773 119.17 9.59773 119.229 9.6072V9.86215C119.19 9.8563 119.151 9.8563 119.112 9.86215C119.044 9.86215 118.988 9.89337 118.988 10.0182V10.1743H119.205V10.4137H118.988V11.6572H118.731V10.4241H118.543V10.1847" fill="#4D4B53"/>
<path d="M120.589 11.6243H120.252V11.4371C120.156 11.5687 119.991 11.6511 119.811 11.6571C119.403 11.6571 119.229 11.4839 119.229 11.1328V10.2856H119.577V11.1048C119.577 11.3435 119.686 11.423 119.876 11.423C120.159 11.423 120.257 11.2686 120.257 11.058V10.2856H120.6V11.6243" fill="#4D4B53"/>
<rect x="121.121" y="9.6001" width="0.329243" height="2.05714" fill="#4D4B53"/>
<rect x="121.807" y="9.6001" width="0.329243" height="2.05714" fill="#4D4B53"/>
<path d="M123.351 10.1794H123.538V10.0545C123.538 9.67461 123.69 9.60697 123.853 9.60697C123.911 9.59781 123.97 9.59781 124.029 9.60697V9.86195C123.99 9.85628 123.951 9.85628 123.913 9.86195C123.845 9.86195 123.789 9.89317 123.789 10.0181V10.1742H123.997V10.4135H123.781V11.6572H123.53V10.424H123.343V10.1846" fill="#4D4B53"/>
<path fill-rule="evenodd" clip-rule="evenodd" d="M125.329 11.4256C125.257 11.4256 125.257 11.4033 125.257 11.3321L125.238 11.3143V10.6552C125.238 10.3881 124.995 10.2856 124.695 10.2856C124.395 10.2856 124.076 10.4014 124.076 10.7309H124.376C124.39 10.5884 124.552 10.5261 124.676 10.5261C124.682 10.5261 124.687 10.5261 124.693 10.5261C124.814 10.5257 124.962 10.5252 124.962 10.6998C124.962 10.8507 124.855 10.8586 124.675 10.8719C124.637 10.8747 124.596 10.8777 124.552 10.8823C124.3 10.9091 124.029 10.9625 124.029 11.2787C124.031 11.3899 124.085 11.4947 124.176 11.5663C124.267 11.6379 124.387 11.6694 124.505 11.6527C124.679 11.6575 124.848 11.602 124.981 11.4969C125.005 11.6126 125.09 11.6527 125.214 11.6527C125.277 11.6502 125.34 11.6397 125.4 11.6215V11.4256H125.329ZM124.571 11.0337C124.697 11.0271 124.821 11.0015 124.938 10.958L124.943 11.1673C124.943 11.3455 124.71 11.4078 124.605 11.4078C124.5 11.4078 124.329 11.39 124.329 11.243C124.329 11.0961 124.443 11.0337 124.571 11.0337Z" fill="#4D4B53"/>
<path fill-rule="evenodd" clip-rule="evenodd" d="M126.716 9.6001H126.086V9.91258H126.716V9.6001ZM126.716 10.1678H126.086V11.6572H126.716V10.1678Z" fill="#4D4B53"/>
<path d="M126.78 10.0757H126.967V9.6001H127.224V10.0757H127.457V10.3301H127.224V11.1761C127.224 11.3199 127.224 11.3918 127.347 11.3918C127.382 11.3968 127.418 11.3968 127.453 11.3918V11.6572C127.396 11.6572 127.343 11.6572 127.286 11.6572C127.02 11.6572 126.971 11.519 126.963 11.2536V10.3356H126.771V10.0812" fill="#4D4B53"/>
<path d="M127.468 9.6001H127.811V10.3523C127.915 10.2048 128.092 10.1177 128.28 10.1221C128.429 10.1054 128.579 10.1539 128.685 10.2537C128.791 10.3535 128.843 10.4936 128.825 10.6338V11.6572H128.482V10.7361C128.482 10.5059 128.378 10.4086 128.177 10.4086C128.071 10.4098 127.971 10.4516 127.9 10.5243C127.829 10.5969 127.793 10.694 127.801 10.7924V11.6572H127.457V9.61033" fill="#4D4B53"/>
<path fill-rule="evenodd" clip-rule="evenodd" d="M131.495 11.4256C131.424 11.4256 131.424 11.4033 131.424 11.3321V11.3143V10.6552C131.424 10.3881 131.176 10.2856 130.876 10.2856C130.576 10.2856 130.257 10.4014 130.257 10.7309H130.557C130.571 10.5884 130.738 10.5261 130.857 10.5261C130.862 10.5261 130.868 10.5261 130.873 10.5261C130.99 10.5257 131.138 10.5252 131.138 10.6998C131.138 10.8507 131.031 10.8586 130.851 10.8719C130.813 10.8747 130.772 10.8777 130.729 10.8823C130.476 10.9091 130.2 10.9625 130.2 11.2787C130.203 11.3899 130.257 11.4947 130.348 11.5663C130.439 11.6379 130.559 11.6694 130.676 11.6527C130.85 11.6575 131.02 11.602 131.152 11.4969C131.171 11.6126 131.262 11.6527 131.381 11.6527C131.446 11.6504 131.51 11.6399 131.571 11.6215V11.4256H131.495ZM130.757 11.0337C130.883 11.0271 131.007 11.0015 131.124 10.958L131.129 11.1673C131.129 11.3455 130.895 11.4078 130.79 11.4078C130.686 11.4078 130.514 11.39 130.514 11.243C130.514 11.0961 130.629 11.0337 130.757 11.0337Z" fill="#4D4B53"/>
<path d="M131.582 10.325H131.909V10.5166C132.009 10.372 132.195 10.2845 132.394 10.2885C132.544 10.2737 132.693 10.3169 132.799 10.4059C132.905 10.4949 132.957 10.6197 132.939 10.7447V11.6571H132.596V10.8359C132.596 10.6307 132.492 10.544 132.291 10.544C132.186 10.545 132.086 10.5823 132.015 10.6471C131.943 10.7119 131.907 10.7983 131.915 10.8861V11.6571H131.571V10.325" fill="#4D4B53"/>
<path fill-rule="evenodd" clip-rule="evenodd" d="M134.689 11.6153H134.976L135 11.6408V9.6001H134.699V10.345C134.589 10.1831 134.407 10.0956 134.221 10.1154C133.92 10.1154 133.629 10.3654 133.629 10.8755C133.629 11.3143 133.839 11.6561 134.269 11.6561C134.44 11.6687 134.604 11.5756 134.689 11.4163V11.6153ZM134.708 10.9163C134.708 11.1663 134.599 11.4265 134.326 11.4265C134.063 11.4265 133.949 11.1561 133.949 10.9163C133.949 10.6766 134.097 10.4062 134.331 10.4062C134.565 10.4062 134.708 10.6664 134.708 10.9163Z" fill="#4D4B53"/>
<path d="M136.738 10.7649C136.72 10.6164 136.571 10.5093 136.405 10.5252C136.238 10.5252 136.01 10.6021 136.01 10.9774C136.01 11.19 136.116 11.4297 136.394 11.4297C136.579 11.4299 136.73 11.3003 136.738 11.1357H137.057C137.047 11.2834 136.971 11.4212 136.847 11.5188C136.722 11.6164 136.56 11.6657 136.394 11.6558C136.198 11.6619 136.008 11.5918 135.873 11.4636C135.738 11.3354 135.672 11.1615 135.691 10.9865C135.666 10.8061 135.73 10.6249 135.868 10.4908C136.005 10.3567 136.201 10.2833 136.405 10.29C136.558 10.2721 136.714 10.3098 136.836 10.3947C136.959 10.4796 137.038 10.6047 137.057 10.7423H136.738" fill="#4D4B53"/>
<path d="M137.751 10.3226H137.992V10.5766C138.041 10.4081 138.178 10.2921 138.335 10.2856H138.429V10.5673H138.318C138.139 10.5673 138 10.7289 138 11.0291V11.6571H137.743V10.3226" fill="#4D4B53"/>
<path fill-rule="evenodd" clip-rule="evenodd" d="M138.842 11.301C138.769 11.2275 138.734 11.1286 138.745 11.0294V11.0386H139.787C139.839 10.7972 139.733 10.5502 139.517 10.4058C139.301 10.2614 139.014 10.2459 138.781 10.366C138.548 10.4862 138.412 10.7201 138.433 10.9654C138.411 11.1451 138.475 11.3247 138.609 11.4573C138.742 11.5899 138.931 11.6625 139.127 11.656C139.436 11.6731 139.711 11.478 139.772 11.1987H139.475C139.428 11.3369 139.284 11.4265 139.127 11.4136C139.019 11.4155 138.915 11.3745 138.842 11.301ZM139.117 10.4989C139.319 10.5063 139.477 10.6605 139.475 10.8465H138.745C138.743 10.7543 138.781 10.6652 138.851 10.5996C138.921 10.5339 139.017 10.4976 139.117 10.4989Z" fill="#4D4B53"/>
<path fill-rule="evenodd" clip-rule="evenodd" d="M140.866 11.616H141.148L141.171 11.6415V9.6001H140.87V10.3452C140.761 10.1833 140.579 10.0958 140.393 10.1155C140.091 10.1155 139.8 10.3656 139.8 10.876C139.8 11.3149 140.01 11.6568 140.44 11.6568C140.612 11.6644 140.775 11.5728 140.866 11.4169V11.616ZM140.885 10.9168C140.885 11.1669 140.765 11.4271 140.498 11.4271C140.24 11.4271 140.12 11.1567 140.12 10.9168C140.12 10.6769 140.273 10.4064 140.507 10.4064C140.741 10.4064 140.885 10.6667 140.885 10.9168Z" fill="#4D4B53"/>
<path fill-rule="evenodd" clip-rule="evenodd" d="M142.487 9.6001H141.857V9.91258H142.487V9.6001ZM142.487 10.1678H141.857V11.6572H142.487V10.1678Z" fill="#4D4B53"/>
<path d="M142.543 10.0757H142.739V9.6001H142.996V10.0757H143.229V10.3301H142.996V11.1761C142.996 11.3199 142.996 11.3918 143.118 11.3918C143.155 11.3971 143.192 11.3971 143.229 11.3918V11.6572C143.175 11.6572 143.118 11.6572 143.061 11.6572C142.792 11.6572 142.743 11.519 142.739 11.2536V10.3356H142.543V10.0812" fill="#4D4B53"/>
<path fill-rule="evenodd" clip-rule="evenodd" d="M144.927 10.3794C144.706 10.5045 144.581 10.7334 144.602 10.9714C144.581 11.2093 144.706 11.4382 144.927 11.5633C145.147 11.6883 145.425 11.6883 145.645 11.5633C145.865 11.4382 145.99 11.2093 145.969 10.9714C145.99 10.7334 145.865 10.5045 145.645 10.3794C145.425 10.2544 145.147 10.2544 144.927 10.3794ZM145.288 10.5347C145.553 10.5347 145.671 10.753 145.671 10.9714C145.671 11.1853 145.553 11.408 145.288 11.408C145.023 11.408 144.905 11.1853 144.905 10.9714C144.905 10.7574 145.023 10.5347 145.288 10.5347Z" fill="#4D4B53"/>
<path d="M145.971 10.1795H146.161V10.0547C146.161 9.67484 146.314 9.6072 146.48 9.6072C146.539 9.59773 146.598 9.59773 146.657 9.6072V9.86215C146.618 9.8562 146.579 9.8562 146.54 9.86215C146.472 9.86215 146.415 9.89337 146.415 10.0182V10.1743H146.629V10.4137H146.415V11.6572H146.161V10.4241H145.971V10.1847" fill="#4D4B53"/>
<path d="M147.359 10.0757H147.551V9.6001H147.796V10.0757H148.029V10.3301H147.796V11.1761C147.796 11.3199 147.796 11.3918 147.918 11.3918C147.955 11.397 147.992 11.397 148.029 11.3918V11.6572C147.971 11.6572 147.918 11.6572 147.861 11.6572C147.592 11.6572 147.543 11.519 147.535 11.2536V10.3356H147.343V10.0812" fill="#4D4B53"/>
<path d="M148.725 9.6001H149.073V10.3523C149.176 10.2048 149.352 10.1177 149.539 10.1221C149.688 10.1054 149.837 10.1539 149.943 10.2537C150.049 10.3535 150.1 10.4936 150.082 10.6338V11.6572H149.74V10.7361C149.74 10.5059 149.637 10.4086 149.436 10.4086C149.332 10.4098 149.232 10.4516 149.161 10.5243C149.09 10.5969 149.054 10.694 149.062 10.7924V11.6572H148.714V9.61033" fill="#4D4B53"/>
<path fill-rule="evenodd" clip-rule="evenodd" d="M150.404 11.0476C150.396 11.1415 150.431 11.2344 150.5 11.3045C150.572 11.3767 150.674 11.4177 150.78 11.4172C150.935 11.4299 151.079 11.3416 151.125 11.2053H151.421C151.36 11.4806 151.087 11.6729 150.78 11.6561C150.585 11.6624 150.397 11.5909 150.265 11.4602C150.132 11.3295 150.068 11.1526 150.09 10.9755C150.062 10.7289 150.197 10.4908 150.432 10.368C150.668 10.2452 150.96 10.2608 151.178 10.4078C151.397 10.5548 151.499 10.8056 151.441 11.0476H150.404ZM150.957 10.5374C151.076 10.6059 151.142 10.7307 151.125 10.8583H150.4C150.384 10.7307 150.449 10.6059 150.568 10.5374C150.687 10.4689 150.839 10.4689 150.957 10.5374Z" fill="#4D4B53"/>
<path d="M152.829 9.6001H153.121V10.7402C153.121 11.0029 153.121 11.3103 153.514 11.3103C153.908 11.3103 153.904 11.0029 153.904 10.7402V9.6001H154.2V10.8542C154.2 11.2977 153.893 11.6572 153.514 11.6572C153.136 11.6572 152.829 11.2977 152.829 10.8542V9.6001" fill="#4D4B53"/>
<path d="M154.897 10.325H155.224V10.5166C155.323 10.372 155.509 10.2845 155.709 10.2885C155.858 10.2737 156.007 10.3169 156.113 10.4059C156.22 10.4949 156.271 10.6197 156.254 10.7447V11.6571H155.91V10.8359C155.91 10.6307 155.807 10.544 155.605 10.544C155.5 10.545 155.4 10.5823 155.329 10.6471C155.258 10.7119 155.222 10.7983 155.229 10.8861V11.6571H154.886V10.325" fill="#4D4B53"/>
<path fill-rule="evenodd" clip-rule="evenodd" d="M156.887 9.6001H156.257V9.91258H156.887V9.6001ZM156.887 10.1678H156.257V11.6572H156.887V10.1678Z" fill="#4D4B53"/>
<path d="M156.943 10.0757H157.136V9.6001H157.395V10.0757H157.629V10.3301H157.395V11.1761C157.395 11.3199 157.395 11.3918 157.518 11.3918C157.555 11.397 157.592 11.397 157.629 11.3918V11.6572C157.571 11.6572 157.518 11.6572 157.46 11.6572C157.189 11.6572 157.14 11.519 157.136 11.2536V10.3356H156.943V10.0812" fill="#4D4B53"/>
<path fill-rule="evenodd" clip-rule="evenodd" d="M158.728 11.301C158.655 11.2275 158.62 11.1286 158.631 11.0294V11.0386H159.673C159.724 10.7972 159.619 10.5502 159.403 10.4058C159.187 10.2614 158.9 10.2459 158.667 10.366C158.434 10.4862 158.298 10.7201 158.318 10.9654C158.297 11.1451 158.361 11.3247 158.494 11.4573C158.628 11.5899 158.817 11.6625 159.013 11.656C159.322 11.6731 159.597 11.478 159.658 11.1987H159.36C159.314 11.3369 159.169 11.4265 159.013 11.4136C158.905 11.4155 158.801 11.3745 158.728 11.301ZM159.003 10.4989C159.205 10.5063 159.363 10.6605 159.36 10.8465H158.631C158.628 10.7543 158.666 10.6652 158.737 10.5996C158.807 10.5339 158.903 10.4976 159.003 10.4989Z" fill="#4D4B53"/>
<path fill-rule="evenodd" clip-rule="evenodd" d="M160.766 11.616H161.057V9.6001H160.771V10.3452C160.659 10.1841 160.475 10.0969 160.287 10.1155C159.981 10.1155 159.686 10.3656 159.686 10.876C159.686 11.3149 159.899 11.6568 160.335 11.6568C160.509 11.6644 160.674 11.5728 160.766 11.4169V11.616ZM160.376 11.4271C160.376 11.4271 160.375 11.4271 160.374 11.4271H160.379C160.378 11.4271 160.377 11.4271 160.376 11.4271ZM160.762 10.9168C160.762 11.1661 160.646 11.4256 160.376 11.4271C160.111 11.4255 159.991 11.1559 159.991 10.9168C159.991 10.6769 160.141 10.4064 160.379 10.4064C160.616 10.4064 160.762 10.6667 160.762 10.9168Z" fill="#4D4B53"/>
<path d="M162.731 10.9632C162.731 11.2678 162.923 11.3876 163.157 11.3876C163.391 11.3876 163.51 11.2378 163.51 11.088C163.52 10.9773 163.461 10.8742 163.37 10.8434C163.255 10.7884 163.097 10.7535 162.867 10.6786C162.652 10.6481 162.491 10.4333 162.492 10.1793C162.492 9.78484 162.803 9.6001 163.106 9.6001C163.408 9.6001 163.753 9.8148 163.753 10.2292H163.455C163.455 9.97458 163.297 9.87971 163.093 9.87971C162.957 9.87971 162.786 9.93963 162.786 10.1344C162.786 10.3291 162.867 10.3541 162.987 10.389L163.472 10.5388C163.664 10.601 163.798 10.8046 163.8 11.0381C163.8 11.4825 163.464 11.6572 163.131 11.6572C162.799 11.6572 162.437 11.4425 162.429 10.9532H162.722" fill="#4D4B53"/>
<path d="M164.486 10.0757H164.69V9.6001H164.943V10.0757H165.171V10.3301H164.943V11.1761C164.943 11.3199 164.943 11.3918 165.067 11.3918C165.102 11.3968 165.137 11.3968 165.171 11.3918V11.6572C165.115 11.6572 165.063 11.6572 165.007 11.6572C164.742 11.6572 164.694 11.519 164.69 11.2536V10.3356H164.502V10.0812" fill="#4D4B53"/>
<path fill-rule="evenodd" clip-rule="evenodd" d="M166.467 11.4256C166.395 11.4256 166.395 11.4033 166.395 11.3321L166.386 11.3143V10.6552C166.386 10.3881 166.143 10.2856 165.843 10.2856C165.543 10.2856 165.224 10.4014 165.224 10.7309H165.524C165.538 10.5884 165.705 10.5261 165.824 10.5261C165.829 10.5261 165.834 10.5261 165.84 10.5261C165.957 10.5257 166.105 10.5252 166.105 10.6998C166.105 10.8507 165.997 10.8586 165.818 10.8719C165.78 10.8747 165.739 10.8777 165.695 10.8823C165.443 10.9091 165.171 10.9625 165.171 11.2787C165.174 11.3899 165.228 11.4947 165.319 11.5663C165.41 11.6379 165.53 11.6694 165.648 11.6527C165.821 11.6575 165.991 11.602 166.124 11.4969C166.148 11.6126 166.233 11.6527 166.357 11.6527C166.42 11.6499 166.483 11.6394 166.543 11.6215V11.4256H166.467ZM165.714 11.0337C165.842 11.0276 165.967 11.002 166.086 10.958V11.1673C166.086 11.3455 165.852 11.4078 165.748 11.4078C165.643 11.4078 165.471 11.39 165.471 11.243C165.471 11.0961 165.586 11.0337 165.714 11.0337Z" fill="#4D4B53"/>
<path d="M166.543 10.0757H166.735V9.6001H166.992V10.0757H167.224V10.3301H166.992V11.1761C166.992 11.3199 166.992 11.3918 167.118 11.3918C167.155 11.3972 167.192 11.3972 167.229 11.3918V11.6572C167.171 11.6572 167.118 11.6572 167.061 11.6572C166.792 11.6572 166.743 11.519 166.739 11.2536V10.3356H166.547V10.0812" fill="#4D4B53"/>
<path fill-rule="evenodd" clip-rule="evenodd" d="M168.326 11.3062C168.253 11.2337 168.218 11.1363 168.229 11.0386V11.0476H169.269C169.328 10.8056 169.225 10.5548 169.007 10.4078C168.789 10.2608 168.496 10.2452 168.261 10.368C168.025 10.4908 167.891 10.7289 167.918 10.9755C167.897 11.1526 167.961 11.3295 168.093 11.4602C168.226 11.5909 168.414 11.6624 168.609 11.6561C168.915 11.6729 169.189 11.4806 169.25 11.2053H168.954C168.91 11.3427 168.765 11.4317 168.609 11.4172C168.501 11.419 168.398 11.3786 168.326 11.3062ZM168.592 10.527C168.792 10.527 168.954 10.6753 168.954 10.8583H168.229C168.229 10.6753 168.391 10.527 168.592 10.527Z" fill="#4D4B53"/>
<path d="M169.626 11.1984C169.626 11.3664 169.793 11.4255 169.977 11.4255C170.16 11.4255 170.328 11.4028 170.322 11.2529C170.317 11.1031 170.063 11.0849 169.815 11.0395C169.566 10.9941 169.318 10.9169 169.318 10.6535C169.318 10.3901 169.685 10.2856 169.961 10.2856C170.236 10.2856 170.565 10.3946 170.609 10.6807H170.252C170.252 10.5445 170.09 10.5082 169.939 10.5082C169.788 10.5082 169.658 10.5082 169.658 10.6444C169.658 10.7806 169.907 10.8079 170.16 10.8533C170.414 10.8987 170.657 10.9759 170.657 11.2347C170.657 11.4936 170.29 11.6571 169.966 11.6571C169.642 11.6571 169.291 11.5118 169.286 11.203H169.626" fill="#4D4B53"/>
<path d="M173.389 11.6071H173.141L173.079 11.379C172.921 11.5619 172.671 11.6655 172.41 11.6567C172.111 11.6549 171.826 11.5431 171.624 11.3483C171.422 11.1534 171.322 10.8932 171.347 10.6303C171.322 10.3674 171.422 10.1072 171.624 9.91233C171.826 9.71749 172.111 9.60569 172.41 9.60385C172.88 9.563 173.302 9.85989 173.361 10.2733H172.984C172.938 10.0355 172.694 9.86771 172.421 9.8865C171.943 9.8865 171.746 10.2534 171.746 10.6352C171.746 11.0171 171.943 11.379 172.421 11.379C172.589 11.396 172.756 11.3456 172.877 11.2418C172.998 11.138 173.06 10.9918 173.046 10.8435H172.455V10.5807H173.4V11.6121" fill="#4D4B53"/>
<path fill-rule="evenodd" clip-rule="evenodd" d="M174.412 10.3794C174.192 10.5045 174.067 10.7334 174.088 10.9714C174.067 11.2093 174.192 11.4382 174.412 11.5633C174.633 11.6883 174.91 11.6883 175.131 11.5633C175.351 11.4382 175.476 11.2093 175.455 10.9714C175.476 10.7334 175.351 10.5045 175.131 10.3794C174.91 10.2544 174.633 10.2544 174.412 10.3794ZM174.774 10.5347C175.039 10.5347 175.157 10.753 175.157 10.9714C175.157 11.1853 175.039 11.408 174.774 11.408C174.509 11.408 174.391 11.1853 174.391 10.9714C174.391 10.7574 174.509 10.5347 174.774 10.5347Z" fill="#4D4B53"/>
<path d="M175.457 10.2856H175.794L176.155 11.3406H176.16L176.507 10.2856H176.829L176.324 11.6571H175.972L175.457 10.2856Z" fill="#4D4B53"/>
<path fill-rule="evenodd" clip-rule="evenodd" d="M177.242 11.301C177.169 11.2275 177.134 11.1286 177.145 11.0294V11.0386H178.187C178.239 10.7972 178.133 10.5502 177.917 10.4058C177.701 10.2614 177.414 10.2459 177.181 10.366C176.948 10.4862 176.812 10.7201 176.833 10.9654C176.811 11.1451 176.875 11.3247 177.008 11.4573C177.142 11.5899 177.331 11.6625 177.527 11.656C177.836 11.6731 178.111 11.478 178.172 11.1987H177.875C177.828 11.3369 177.684 11.4265 177.527 11.4136C177.419 11.4155 177.315 11.3745 177.242 11.301ZM177.517 10.4989C177.719 10.5063 177.877 10.6605 177.875 10.8465H177.145C177.143 10.7543 177.181 10.6652 177.251 10.5996C177.321 10.5339 177.417 10.4976 177.517 10.4989Z" fill="#4D4B53"/>
<path d="M178.886 10.3226H179.128V10.5766C179.178 10.4081 179.315 10.2921 179.473 10.2856H179.571V10.5673H179.461C179.284 10.5673 179.144 10.7289 179.144 11.0291V11.6571H178.886V10.3226Z" fill="#4D4B53"/>
<path d="M179.577 10.325H179.904V10.5166C180.004 10.3706 180.193 10.2828 180.394 10.2885C180.544 10.2737 180.693 10.3169 180.799 10.4059C180.905 10.4949 180.957 10.6197 180.939 10.7447V11.6571H180.596V10.8359C180.596 10.6307 180.492 10.544 180.291 10.544C180.186 10.545 180.086 10.5823 180.015 10.6471C179.943 10.7119 179.907 10.7983 179.915 10.8861V11.6571H179.571V10.325" fill="#4D4B53"/>
<path d="M181.629 10.3262H181.922V10.5079C182.015 10.3706 182.179 10.2893 182.354 10.2945C182.52 10.2823 182.676 10.3676 182.745 10.5079C182.84 10.3677 183.008 10.286 183.186 10.2945C183.323 10.2667 183.466 10.3055 183.565 10.3974C183.664 10.4893 183.706 10.6217 183.676 10.7487V11.6571H183.368V10.8668C183.368 10.6624 183.368 10.517 183.113 10.517C182.858 10.517 182.819 10.6487 182.819 10.8668V11.6298H182.505V10.7895C182.505 10.6124 182.447 10.517 182.26 10.517C182.171 10.5227 182.089 10.5618 182.032 10.6252C181.974 10.6886 181.947 10.7709 181.957 10.8531V11.6253H181.648V10.3262" fill="#4D4B53"/>
<path fill-rule="evenodd" clip-rule="evenodd" d="M184.1 11.3045C184.029 11.2322 183.994 11.1355 184.005 11.0386V11.0476H185.041C185.1 10.8056 184.997 10.5548 184.778 10.4078C184.56 10.2608 184.268 10.2452 184.032 10.368C183.797 10.4908 183.662 10.7289 183.69 10.9755C183.668 11.1526 183.732 11.3295 183.865 11.4602C183.997 11.5909 184.185 11.6624 184.38 11.6561C184.687 11.6729 184.96 11.4806 185.021 11.2053H184.725C184.679 11.3416 184.536 11.4299 184.38 11.4172C184.274 11.4177 184.172 11.3767 184.1 11.3045ZM184.562 10.5374C184.681 10.6059 184.747 10.7307 184.73 10.8583H184.005C183.989 10.7307 184.054 10.6059 184.173 10.5374C184.292 10.4689 184.444 10.4689 184.562 10.5374Z" fill="#4D4B53"/>
<path d="M185.759 10.325H186.085V10.5166C186.184 10.372 186.369 10.2845 186.568 10.2885C186.717 10.2737 186.865 10.3169 186.971 10.4059C187.077 10.4949 187.129 10.6197 187.111 10.7447V11.6571H186.763V10.8359C186.763 10.6307 186.666 10.544 186.459 10.544C186.355 10.545 186.255 10.5823 186.184 10.6471C186.113 10.7119 186.077 10.7983 186.085 10.8861V11.6571H185.743V10.325" fill="#4D4B53"/>
<path d="M187.114 10.0757H187.31V9.6001H187.567V10.0757H187.8V10.3301H187.567V11.1761C187.567 11.3199 187.567 11.3918 187.69 11.3918C187.726 11.3971 187.763 11.3971 187.8 11.3918V11.6572C187.743 11.6572 187.69 11.6572 187.633 11.6572C187.363 11.6572 187.314 11.519 187.31 11.2536V10.3356H187.114V10.0812" fill="#4D4B53"/>
<path d="M97.2857 40.457H97.5986L98.37 41.9687H98.3743V40.457H98.6571V42.5142H98.3443L97.5771 41.0025H97.5686V42.5142H97.2857V40.457Z" fill="#4D4B53"/>
<path fill-rule="evenodd" clip-rule="evenodd" d="M100.638 42.2823C100.567 42.2823 100.567 42.2599 100.567 42.1884L100.558 42.1706V41.5139C100.558 41.2413 100.311 41.1431 100.012 41.1431C99.713 41.1431 99.395 41.2592 99.395 41.5898H99.694C99.7082 41.4513 99.8743 41.3888 99.993 41.3888C99.9958 41.3888 99.9986 41.3888 100.001 41.3888C100.119 41.3887 100.273 41.3885 100.273 41.563C100.273 41.7101 100.167 41.718 99.989 41.7311C99.9508 41.7339 99.9093 41.737 99.8648 41.7417C99.6133 41.7685 99.3428 41.8221 99.3428 42.1393C99.3469 42.2501 99.4011 42.3541 99.4918 42.4249C99.5824 42.4957 99.7009 42.5267 99.8174 42.5101C99.9908 42.5157 100.16 42.46 100.292 42.3537C100.32 42.4699 100.406 42.5101 100.524 42.5101C100.589 42.507 100.653 42.4965 100.714 42.4788V42.2823H100.638ZM99.8933 41.8891C100.019 41.8845 100.143 41.8588 100.259 41.8132V42.0231C100.259 42.2018 100.021 42.2644 99.9218 42.2644C99.8221 42.2644 99.6513 42.242 99.6513 42.0991C99.6513 41.9561 99.7652 41.8891 99.8933 41.8891Z" fill="#4D4B53"/>
<path d="M100.714 40.9466H100.91V40.457H101.167V40.9301H101.4V41.1886H101.167V42.0301C101.167 42.1732 101.167 42.2447 101.29 42.2447C101.326 42.251 101.363 42.251 101.4 42.2447V42.5142C101.343 42.5142 101.29 42.5142 101.237 42.5142C100.967 42.5142 100.918 42.3712 100.914 42.1126V41.2051H100.718V40.9466" fill="#4D4B53"/>
<path fill-rule="evenodd" clip-rule="evenodd" d="M102.716 40.457H102.086V40.7695H102.716V40.457ZM102.716 41.0247H102.086V42.5142H102.716V41.0247Z" fill="#4D4B53"/>
<path fill-rule="evenodd" clip-rule="evenodd" d="M103.479 41.1434C103.106 41.1323 102.793 41.422 102.774 41.795C102.756 41.9855 102.822 42.1746 102.954 42.3127C103.087 42.4507 103.273 42.5241 103.464 42.5135C103.837 42.5105 104.139 42.2091 104.143 41.8357C104.147 41.4623 103.851 41.1545 103.479 41.1434ZM103.464 41.3191C103.73 41.3191 103.849 41.557 103.849 41.795C103.849 42.0281 103.73 42.2708 103.464 42.2708C103.198 42.2708 103.079 42.0281 103.079 41.795C103.079 41.5618 103.198 41.3191 103.464 41.3191Z" fill="#4D4B53"/>
<path d="M104.165 41.1779H104.489V41.3786C104.586 41.2323 104.771 41.1429 104.97 41.1459C105.118 41.1311 105.266 41.1743 105.372 41.2633C105.477 41.3523 105.529 41.4772 105.511 41.6021V42.5145H105.165V41.6842C105.165 41.479 105.062 41.3923 104.862 41.3923C104.757 41.3932 104.657 41.4312 104.586 41.4969C104.515 41.5627 104.48 41.6504 104.489 41.739V42.5099H104.143V41.1779" fill="#4D4B53"/>
<path fill-rule="evenodd" clip-rule="evenodd" d="M107.5 42.2823C107.429 42.2823 107.429 42.2599 107.429 42.1884L107.414 42.1706V41.5139C107.414 41.2413 107.167 41.1431 106.867 41.1431C106.567 41.1431 106.248 41.2592 106.248 41.5898H106.552C106.567 41.4513 106.729 41.3888 106.852 41.3888C106.855 41.3888 106.858 41.3888 106.861 41.3888C106.984 41.3887 107.133 41.3885 107.133 41.563C107.133 41.7101 107.027 41.718 106.848 41.7311C106.81 41.7339 106.768 41.737 106.724 41.7417C106.471 41.7685 106.2 41.8221 106.2 42.1393C106.204 42.2501 106.258 42.3541 106.349 42.4249C106.44 42.4957 106.559 42.5267 106.676 42.5101C106.85 42.5153 107.02 42.4596 107.152 42.3537C107.171 42.4699 107.262 42.5101 107.381 42.5101C107.446 42.5071 107.51 42.4966 107.571 42.4788V42.2823H107.5ZM106.748 41.8891C106.874 41.8846 106.998 41.8589 107.114 41.8132L107.119 42.0231C107.119 42.2018 106.886 42.2644 106.781 42.2644C106.676 42.2644 106.505 42.242 106.505 42.0991C106.505 41.9561 106.619 41.8891 106.748 41.8891Z" fill="#4D4B53"/>
<rect x="107.407" y="40.457" width="0.329243" height="2.05714" fill="#4D4B53"/>
<path d="M110.607 41.1153C110.56 40.8775 110.309 40.7097 110.028 40.7285C109.537 40.7285 109.334 41.0955 109.334 41.4723C109.334 41.8492 109.537 42.2161 110.028 42.2161C110.348 42.2161 110.607 41.9941 110.607 41.7202H111C110.997 41.9368 110.892 42.1432 110.709 42.2926C110.526 42.4419 110.281 42.5217 110.028 42.5136C109.412 42.4617 108.943 42.0177 108.943 41.4872C108.943 40.9567 109.412 40.5127 110.028 40.4608C110.511 40.42 110.943 40.7175 111 41.1302H110.601" fill="#4D4B53"/>
<path d="M111.02 41.1754H111.249V41.4294C111.3 41.2627 111.436 41.1488 111.592 41.1431H111.686V41.4247H111.576C111.4 41.4247 111.261 41.5864 111.261 41.8865V42.5145H111V41.1754" fill="#4D4B53"/>
<path fill-rule="evenodd" clip-rule="evenodd" d="M112.781 42.1633C112.708 42.0883 112.673 41.9872 112.688 41.887V41.8961H113.73C113.781 41.6547 113.676 41.4077 113.46 41.2633C113.244 41.1188 112.957 41.1033 112.724 41.2235C112.491 41.3436 112.355 41.5776 112.376 41.8229C112.354 42.0027 112.418 42.1823 112.551 42.3149C112.685 42.4476 112.874 42.5201 113.07 42.5137C113.378 42.5287 113.652 42.3345 113.715 42.0562H113.417C113.375 42.1974 113.228 42.29 113.07 42.2758C112.961 42.2794 112.855 42.2382 112.781 42.1633ZM113.06 41.3609C113.262 41.3683 113.42 41.5225 113.417 41.7086H112.688C112.684 41.616 112.722 41.5261 112.792 41.4601C112.863 41.3942 112.96 41.3583 113.06 41.3609Z" fill="#4D4B53"/>
<path fill-rule="evenodd" clip-rule="evenodd" d="M114.805 42.4779H115.09L115.114 42.4983V40.457H114.81V41.2021C114.7 41.041 114.519 40.9538 114.333 40.9724C114.038 40.9724 113.743 41.2225 113.743 41.7328C113.743 42.1717 113.952 42.5136 114.381 42.5136C114.551 42.5223 114.713 42.4328 114.805 42.2788V42.4779ZM114.824 41.7685C114.824 42.0186 114.714 42.2788 114.443 42.2788H114.438C114.176 42.2788 114.062 42.0135 114.062 41.7685C114.062 41.5236 114.214 41.2582 114.448 41.2582C114.681 41.2582 114.824 41.5185 114.824 41.7685Z" fill="#4D4B53"/>
<path fill-rule="evenodd" clip-rule="evenodd" d="M116.44 40.457H115.8V40.7695H116.44V40.457ZM116.44 41.0247H115.8V42.5142H116.44V41.0247Z" fill="#4D4B53"/>
<path d="M116.486 40.9466H116.682V40.457H116.939V40.9301H117.171V41.1886H116.939V42.0301C116.939 42.1732 116.939 42.2447 117.061 42.2447C117.098 42.2509 117.135 42.2509 117.171 42.2447V42.5142C117.118 42.5142 117.061 42.5142 117.004 42.5142C116.735 42.5142 116.686 42.3712 116.682 42.1126V41.2051H116.486V40.9466" fill="#4D4B53"/>
<path d="M118.543 40.457H118.835V41.5971C118.835 41.8599 118.835 42.1672 119.229 42.1672C119.622 42.1672 119.622 41.8648 119.622 41.5971V40.457H119.914V41.7111C119.914 42.1546 119.607 42.5142 119.229 42.5142C118.85 42.5142 118.543 42.1546 118.543 41.7111V40.457" fill="#4D4B53"/>
<path d="M119.925 41.1779H120.251V41.3786C120.35 41.2308 120.538 41.1412 120.739 41.1459C120.888 41.1311 121.037 41.1743 121.143 41.2633C121.249 41.3523 121.3 41.4772 121.282 41.6021V42.5145H120.94V41.6842C120.94 41.479 120.843 41.3923 120.636 41.3923C120.531 41.3932 120.43 41.4312 120.359 41.4969C120.288 41.5627 120.253 41.6504 120.262 41.739V42.5099H119.914V41.1779" fill="#4D4B53"/>
<path fill-rule="evenodd" clip-rule="evenodd" d="M122.611 40.457H121.971V40.7695H122.611V40.457ZM122.611 41.0247H121.971V42.5142H122.611V41.0247Z" fill="#4D4B53"/>
<path fill-rule="evenodd" clip-rule="evenodd" d="M123.364 41.1434C122.99 41.1323 122.676 41.425 122.66 41.8C122.642 41.9885 122.707 42.1754 122.837 42.3124C122.968 42.4494 123.151 42.5228 123.34 42.5137C123.715 42.516 124.022 42.2159 124.028 41.8406C124.035 41.4653 123.739 41.1545 123.364 41.1434ZM123.345 41.3274C123.609 41.3274 123.727 41.5637 123.727 41.8C123.727 42.0316 123.614 42.2727 123.345 42.2727C123.076 42.2727 122.962 42.0316 122.962 41.8C122.962 41.5684 123.08 41.3274 123.345 41.3274Z" fill="#4D4B53"/>
<path d="M124.05 41.1869H124.371V41.3778C124.468 41.232 124.654 41.1429 124.854 41.1459C125.002 41.1311 125.151 41.1742 125.257 41.2629C125.363 41.3516 125.414 41.4761 125.397 41.6006V42.5099H125.055V41.6915C125.055 41.4869 124.951 41.4005 124.751 41.4005C124.644 41.4002 124.542 41.4375 124.47 41.5032C124.397 41.5689 124.361 41.6571 124.371 41.7461V42.5145H124.029V41.1869" fill="#4D4B53"/>
<path fill-rule="evenodd" clip-rule="evenodd" d="M127.999 40.457H127.595L126.771 42.5142H127.159L127.361 41.9999H128.223L128.425 42.5142H128.829L127.999 40.457ZM128.125 41.681H127.464L127.803 40.8067L128.125 41.681Z" fill="#4D4B53"/>
<path fill-rule="evenodd" clip-rule="evenodd" d="M130.195 42.4779H130.2L130.195 42.4983V42.4779ZM130.195 42.4779V40.457H129.89V41.2021C129.783 41.0483 129.61 40.9618 129.429 40.9724C129.124 40.9724 128.829 41.2225 128.829 41.7328C128.829 42.1717 129.042 42.5136 129.478 42.5136C129.651 42.5223 129.816 42.4328 129.909 42.2788V42.4779H130.195ZM129.904 41.7685C129.904 42.0186 129.788 42.2788 129.512 42.2788C129.245 42.2788 129.129 42.0135 129.129 41.7685C129.129 41.5236 129.279 41.2582 129.517 41.2582C129.754 41.2582 129.904 41.5185 129.904 41.7685Z" fill="#4D4B53"/>
<path d="M130.2 41.1837H130.494V41.3654C130.586 41.2281 130.751 41.1467 130.925 41.1519C131.091 41.1397 131.248 41.225 131.317 41.3654C131.411 41.2252 131.58 41.1434 131.758 41.1519C131.895 41.1241 132.038 41.1629 132.137 41.2548C132.236 41.3467 132.278 41.4791 132.248 41.6061V42.5145H131.939V41.7242C131.939 41.5152 131.939 41.3699 131.684 41.3699C131.43 41.3699 131.385 41.5016 131.385 41.7196V42.4782H131.077V41.6515C131.077 41.4744 131.018 41.3744 130.832 41.3744C130.742 41.3801 130.658 41.4197 130.601 41.4842C130.544 41.5486 130.517 41.6321 130.528 41.7151V42.4872H130.2V41.1837Z" fill="#4D4B53"/>
<path fill-rule="evenodd" clip-rule="evenodd" d="M133.573 40.457H132.943V40.7695H133.573V40.457ZM133.573 41.0247H132.943V42.5142H133.573V41.0247Z" fill="#4D4B53"/>
<path d="M133.629 41.1779H133.958V41.3786C134.057 41.2323 134.245 41.1429 134.447 41.1459C134.598 41.1311 134.748 41.1743 134.855 41.2633C134.962 41.3523 135.014 41.4772 134.997 41.6021V42.5145H134.65V41.6842C134.65 41.479 134.546 41.3923 134.343 41.3923C134.236 41.3932 134.134 41.4312 134.062 41.4969C133.99 41.5627 133.954 41.6504 133.964 41.739V42.5099H133.629V41.1779Z" fill="#4D4B53"/>
<path fill-rule="evenodd" clip-rule="evenodd" d="M135.63 40.457H135.02L135 40.7695H135.63V40.457ZM135.63 41.0247H135.02L135 42.5142H135.63V41.0247Z" fill="#4D4B53"/>
<path d="M136.025 42.0665C136.025 42.2356 136.191 42.2951 136.369 42.2951C136.546 42.2951 136.724 42.2722 136.713 42.1214C136.702 41.9705 136.455 41.9522 136.207 41.9019C135.96 41.8516 135.718 41.7831 135.718 41.5134C135.718 41.2436 136.084 41.1431 136.358 41.1431C136.632 41.1431 136.96 41.2528 137.003 41.5454H136.648C136.616 41.4082 136.482 41.3671 136.336 41.3671C136.191 41.3671 136.057 41.3671 136.057 41.4996C136.057 41.6322 136.31 41.6642 136.557 41.7099C136.804 41.7556 137.057 41.8334 137.057 42.0894C137.057 42.3454 136.686 42.5145 136.369 42.5145C136.051 42.5145 135.691 42.3682 135.686 42.0574H136.025" fill="#4D4B53"/>
<path d="M137.743 40.9466H137.935V40.457H138.188V40.9301H138.429V41.1886H138.2V42.0301C138.2 42.1732 138.2 42.2447 138.324 42.2447C138.359 42.2509 138.394 42.2509 138.429 42.2447V42.5142C138.372 42.5142 138.32 42.5142 138.268 42.5142C138.004 42.5142 137.955 42.3712 137.951 42.1126V41.2051H137.759V40.9466" fill="#4D4B53"/>
<path d="M138.437 41.1754H138.675V41.4294C138.725 41.2642 138.861 41.1507 139.016 41.1431H139.114V41.4247H139.003C138.827 41.4247 138.687 41.5864 138.687 41.8865V42.5145H138.429V41.1754" fill="#4D4B53"/>
<path fill-rule="evenodd" clip-rule="evenodd" d="M140.41 42.2823C140.339 42.2823 140.339 42.2599 140.339 42.1884L140.329 42.1706V41.5139C140.329 41.2413 140.082 41.1431 139.783 41.1431C139.484 41.1431 139.166 41.2592 139.166 41.5898H139.465C139.475 41.4513 139.646 41.3888 139.764 41.3888C139.767 41.3888 139.77 41.3888 139.773 41.3888C139.891 41.3887 140.044 41.3885 140.044 41.563C140.044 41.7101 139.938 41.718 139.76 41.7311C139.722 41.7339 139.681 41.737 139.636 41.7417C139.385 41.7685 139.114 41.8221 139.114 42.1393C139.118 42.2501 139.173 42.3541 139.263 42.4249C139.354 42.4957 139.472 42.5267 139.589 42.5101C139.762 42.5153 139.931 42.4596 140.063 42.3537C140.087 42.4699 140.172 42.5101 140.296 42.5101C140.36 42.5066 140.424 42.4961 140.486 42.4788V42.2823H140.41ZM139.66 41.8891C139.787 41.8851 139.913 41.8593 140.03 41.8132V42.0231C140.03 42.2018 139.798 42.2644 139.693 42.2644C139.589 42.2644 139.418 42.242 139.418 42.0991C139.418 41.9561 139.532 41.8891 139.66 41.8891Z" fill="#4D4B53"/>
<path d="M141.171 40.9466H141.366V40.457H141.622V40.9301H141.853V41.1886H141.622V42.0301C141.622 42.1732 141.622 42.2447 141.748 42.2447C141.784 42.2509 141.821 42.2509 141.857 42.2447V42.5142C141.8 42.5142 141.748 42.5142 141.691 42.5142C141.423 42.5142 141.374 42.3712 141.37 42.1126V41.2051H141.176V40.9466" fill="#4D4B53"/>
<path fill-rule="evenodd" clip-rule="evenodd" d="M142.487 40.457H141.857V40.7695H142.487V40.457ZM142.487 41.0247H141.857V42.5142H142.487V41.0247Z" fill="#4D4B53"/>
<path fill-rule="evenodd" clip-rule="evenodd" d="M143.248 41.1433C142.874 41.1331 142.561 41.4256 142.546 41.7999C142.528 41.9892 142.593 42.1769 142.724 42.314C142.856 42.4512 143.041 42.524 143.23 42.5135C143.605 42.5132 143.909 42.212 143.914 41.8373C143.919 41.4627 143.623 41.1536 143.248 41.1433ZM143.23 41.3274C143.495 41.3274 143.613 41.5636 143.613 41.7999C143.613 42.0315 143.499 42.2725 143.23 42.2725C142.961 42.2725 142.843 42.0315 142.843 41.7999C142.843 41.5684 142.966 41.3274 143.23 41.3274Z" fill="#4D4B53"/>
<path d="M144.611 41.1779H144.938V41.3786C145.036 41.2323 145.222 41.1429 145.423 41.1459C145.572 41.1311 145.721 41.1743 145.828 41.2633C145.934 41.3523 145.986 41.4772 145.968 41.6021V42.5145H145.625V41.6842C145.625 41.479 145.521 41.3923 145.319 41.3923C145.213 41.3932 145.112 41.4312 145.041 41.4969C144.97 41.5627 144.934 41.6504 144.943 41.739V42.5099H144.6V41.1779" fill="#4D4B53"/>
<path d="M146.05 41.8286H146.578V42.1461C146.578 42.3305 146.359 42.4871 146.064 42.5143V42.3746C146.224 42.3448 146.328 42.2489 146.311 42.1461H146.05V41.8286Z" fill="#4D4B53"/>
<path fill-rule="evenodd" clip-rule="evenodd" d="M148.638 42.2823C148.567 42.2823 148.567 42.2599 148.567 42.1884L148.553 42.1706V41.5139C148.553 41.2413 148.311 41.1431 148.012 41.1431C147.713 41.1431 147.395 41.2592 147.395 41.5898H147.689C147.708 41.4513 147.874 41.3888 147.993 41.3888C147.996 41.3888 147.999 41.3888 148.001 41.3888C148.119 41.3887 148.273 41.3885 148.273 41.563C148.273 41.7101 148.167 41.718 147.989 41.7311C147.951 41.7339 147.909 41.737 147.865 41.7417C147.613 41.7685 147.343 41.8221 147.343 42.1393C147.347 42.2501 147.401 42.3541 147.492 42.4249C147.582 42.4957 147.701 42.5267 147.817 42.5101C147.991 42.5162 148.16 42.4603 148.292 42.3537C148.316 42.4699 148.401 42.5101 148.524 42.5101C148.589 42.5068 148.653 42.4963 148.714 42.4788V42.2823H148.638ZM147.884 41.8891C148.011 41.8851 148.136 41.8593 148.254 41.8132V42.0231C148.254 42.2018 148.021 42.2644 147.917 42.2644C147.813 42.2644 147.642 42.242 147.642 42.0991C147.642 41.9561 147.756 41.8891 147.884 41.8891Z" fill="#4D4B53"/>
<path d="M150.09 40.457H150.381V41.6304C150.381 41.9008 150.381 42.217 150.774 42.217C151.166 42.217 151.166 41.9059 151.166 41.6304V40.457H151.457V41.7477C151.429 42.1804 151.13 42.5142 150.771 42.5142C150.412 42.5142 150.114 42.1804 150.086 41.7477V40.457" fill="#4D4B53"/>
<rect x="152.143" y="41.8286" width="0.685714" height="0.685714" fill="#4D4B53"/>
<path d="M153.118 41.8285C153.118 42.1338 153.306 42.2489 153.544 42.2489C153.783 42.2489 153.902 42.0987 153.902 41.9486C153.91 41.8381 153.851 41.7359 153.761 41.7033C153.642 41.6533 153.489 41.6132 153.259 41.5382C153.045 41.5053 152.886 41.2905 152.888 41.0376C152.888 40.6422 153.199 40.457 153.506 40.457C153.812 40.457 154.149 40.6723 154.149 41.0877H153.855C153.855 40.8324 153.697 40.7373 153.493 40.7373C153.357 40.7373 153.186 40.7924 153.186 40.9926C153.186 41.1928 153.267 41.2078 153.386 41.2428L153.872 41.393C154.064 41.4554 154.198 41.6595 154.2 41.8935C154.2 42.334 153.868 42.5142 153.531 42.5142C153.195 42.5142 152.837 42.2989 152.829 41.8084H153.127" fill="#4D4B53"/>
<rect x="154.886" y="41.8286" width="0.685714" height="0.685714" fill="#4D4B53"/>
<path d="M158.303 42.4641H158.054L157.992 42.236C157.832 42.4189 157.581 42.5224 157.319 42.5137C156.716 42.4617 156.257 42.0177 156.257 41.4872C156.257 40.9567 156.716 40.5128 157.319 40.4608C157.793 40.4198 158.219 40.7161 158.28 41.1302H157.896C157.836 40.8996 157.6 40.7377 157.33 40.7435C156.849 40.7435 156.651 41.1104 156.651 41.4872C156.651 41.8641 156.849 42.231 157.33 42.231C157.499 42.248 157.667 42.1976 157.789 42.0938C157.91 41.99 157.973 41.8438 157.958 41.6955H157.364V41.4327H158.314V42.4641" fill="#4D4B53"/>
<path fill-rule="evenodd" clip-rule="evenodd" d="M159.709 41.1434C159.335 41.1314 159.021 41.4215 159.003 41.7951C158.985 41.9848 159.05 42.1731 159.181 42.311C159.313 42.4489 159.497 42.5229 159.688 42.5137C160.061 42.5133 160.366 42.213 160.371 41.839C160.377 41.465 160.082 41.1554 159.709 41.1434ZM159.688 41.3192C159.959 41.3192 160.077 41.5571 160.077 41.7951C160.077 42.0283 159.954 42.271 159.688 42.271C159.421 42.271 159.303 42.0283 159.303 41.7951C159.303 41.5619 159.417 41.3192 159.688 41.3192Z" fill="#4D4B53"/>
<path d="M160.371 41.1431H160.708L161.065 42.198H161.075L161.421 41.1431H161.743L161.238 42.5145H160.886L160.371 41.1431Z" fill="#4D4B53"/>
<path fill-rule="evenodd" clip-rule="evenodd" d="M162.155 42.1615C162.082 42.0869 162.047 41.9867 162.06 41.8868V41.896H163.101C163.153 41.6546 163.048 41.4076 162.832 41.2632C162.616 41.1188 162.328 41.1033 162.096 41.2235C161.863 41.3436 161.727 41.5775 161.748 41.8228C161.724 42.0029 161.788 42.1834 161.921 42.3164C162.055 42.4494 162.245 42.5215 162.442 42.5135C162.75 42.5305 163.025 42.3354 163.087 42.0561H162.789C162.746 42.1973 162.6 42.2899 162.442 42.2756C162.333 42.2777 162.228 42.236 162.155 42.1615ZM162.62 41.3828C162.74 41.4524 162.805 41.579 162.789 41.7085H162.06C162.044 41.579 162.109 41.4524 162.229 41.3828C162.348 41.3133 162.501 41.3133 162.62 41.3828Z" fill="#4D4B53"/>
<path d="M163.8 41.1754H164.049V41.4294C164.1 41.2627 164.236 41.1488 164.392 41.1431H164.486V41.4247H164.38C164.2 41.4247 164.061 41.5864 164.061 41.8865V42.5145H163.804V41.1754" fill="#4D4B53"/>
<path d="M164.529 41.1779H164.828V41.3786C164.926 41.2323 165.111 41.1429 165.311 41.1459C165.46 41.1311 165.608 41.1743 165.714 41.2633C165.82 41.3523 165.871 41.4772 165.854 41.6021V42.5145H165.506V41.6842C165.506 41.479 165.403 41.3923 165.202 41.3923C165.096 41.3933 164.995 41.4311 164.923 41.4967C164.851 41.5623 164.815 41.65 164.822 41.739V42.5099H164.486V41.1779" fill="#4D4B53"/>
<path d="M166.543 41.1837H166.836V41.3654C166.928 41.2281 167.092 41.1467 167.266 41.1519C167.433 41.1391 167.591 41.2243 167.662 41.3654C167.756 41.2252 167.924 41.1434 168.102 41.1519C168.238 41.1241 168.381 41.1629 168.48 41.2548C168.579 41.3467 168.62 41.4791 168.591 41.6061V42.5145H168.283V41.7242C168.283 41.5152 168.283 41.3699 168.029 41.3699C167.774 41.3699 167.73 41.5016 167.73 41.7196V42.4782H167.427V41.6515C167.427 41.4744 167.369 41.3744 167.178 41.3744C167.088 41.3801 167.005 41.4197 166.948 41.4842C166.89 41.5486 166.864 41.6321 166.875 41.7151V42.4872H166.567V41.1837" fill="#4D4B53"/>
<path fill-rule="evenodd" clip-rule="evenodd" d="M169.009 42.1666C168.936 42.0931 168.902 41.9944 168.915 41.896L168.92 41.905H169.955C170.014 41.6631 169.911 41.4123 169.693 41.2652C169.474 41.1182 169.182 41.1026 168.946 41.2254C168.711 41.3482 168.577 41.5864 168.604 41.8329C168.582 42.01 168.646 42.187 168.779 42.3176C168.911 42.4483 169.1 42.5198 169.294 42.5135C169.601 42.5303 169.875 42.338 169.935 42.0628H169.64C169.597 42.2019 169.452 42.2931 169.294 42.2791C169.186 42.2811 169.082 42.2401 169.009 42.1666ZM169.477 41.3994C169.596 41.4678 169.661 41.5926 169.645 41.7202H168.92C168.903 41.5926 168.969 41.4678 169.088 41.3994C169.206 41.3309 169.358 41.3309 169.477 41.3994Z" fill="#4D4B53"/>
<path d="M170.673 41.1779H170.999V41.3786C171.097 41.2323 171.283 41.1429 171.482 41.1459C171.631 41.1311 171.78 41.1743 171.885 41.2633C171.991 41.3523 172.043 41.4772 172.025 41.6021V42.5145H171.683V41.6842C171.683 41.479 171.58 41.3923 171.379 41.3923C171.273 41.3933 171.172 41.4311 171.1 41.4967C171.028 41.5623 170.992 41.65 170.999 41.739V42.5099H170.657V41.1779" fill="#4D4B53"/>
<path d="M172.033 40.9466H172.227V40.457H172.483V40.9301H172.714V41.1886H172.483V42.0301C172.483 42.1732 172.483 42.2447 172.605 42.2447C172.64 42.2509 172.675 42.2509 172.71 42.2447V42.5142C172.653 42.5142 172.601 42.5142 172.544 42.5142C172.276 42.5142 172.227 42.3712 172.223 42.1126V41.2051H172.029V40.9466" fill="#4D4B53"/>
<path fill-rule="evenodd" clip-rule="evenodd" d="M174.628 40.457H174.224L173.4 42.5142H173.787L173.989 41.9999H174.851L175.053 42.5142H175.457L174.628 40.457ZM174.77 41.681H174.109L174.448 40.8067L174.77 41.681Z" fill="#4D4B53"/>
<path fill-rule="evenodd" clip-rule="evenodd" d="M176.134 42.5142C176.582 42.5142 176.829 42.2969 176.829 41.8674H176.824V40.4932H176.513V40.6902C176.428 40.5377 176.266 40.4478 176.095 40.4578C175.915 40.4613 175.745 40.541 175.625 40.6779C175.504 40.8147 175.444 40.9966 175.459 41.1803C175.459 41.5896 175.642 41.9382 176.09 41.9382C176.265 41.9371 176.426 41.8409 176.513 41.6856V41.9079C176.527 42.0092 176.493 42.1111 176.422 42.1834C176.352 42.2557 176.253 42.2902 176.154 42.2767C175.991 42.2767 175.849 42.2464 175.814 42.0645H175.504C175.533 42.403 175.849 42.5142 176.134 42.5142ZM176.139 40.7104C176.405 40.7104 176.513 40.9428 176.513 41.1904C176.513 41.438 176.4 41.6957 176.139 41.6957C175.878 41.6957 175.765 41.4632 175.765 41.2157C175.765 40.9681 175.873 40.7104 176.139 40.7104Z" fill="#4D4B53"/>
<path fill-rule="evenodd" clip-rule="evenodd" d="M177.833 41.905C177.823 41.9996 177.857 42.0938 177.927 42.1649C177.998 42.2382 178.101 42.2798 178.209 42.2791C178.366 42.2931 178.512 42.2019 178.554 42.0628H178.85C178.789 42.338 178.515 42.5303 178.209 42.5135C178.014 42.5198 177.826 42.4483 177.693 42.3176C177.561 42.187 177.497 42.01 177.518 41.8329C177.491 41.5864 177.625 41.3482 177.861 41.2254C178.096 41.1026 178.389 41.1182 178.607 41.2652C178.825 41.4123 178.928 41.6631 178.869 41.905H177.833ZM178.386 41.3994C178.505 41.4678 178.57 41.5926 178.554 41.7202H177.829C177.813 41.5926 177.878 41.4678 177.997 41.3994C178.116 41.3309 178.267 41.3309 178.386 41.3994Z" fill="#4D4B53"/>
<path d="M178.886 41.1779H179.215V41.3786C179.314 41.2323 179.502 41.1429 179.704 41.1459C179.855 41.1311 180.005 41.1743 180.112 41.2633C180.22 41.3523 180.272 41.4772 180.254 41.6021V42.5145H179.924V41.6842C179.924 41.479 179.82 41.3923 179.616 41.3923C179.509 41.3932 179.408 41.4312 179.336 41.4969C179.264 41.5627 179.228 41.6504 179.237 41.739V42.5099H178.891V41.1779" fill="#4D4B53"/>
<path d="M181.997 41.6219C181.976 41.4766 181.832 41.3713 181.669 41.3822C181.502 41.3822 181.27 41.459 181.27 41.8345C181.27 42.0516 181.376 42.2868 181.654 42.2868C181.837 42.2869 181.988 42.1573 181.997 41.9928H182.314C182.304 42.1413 182.228 42.2799 182.103 42.3776C181.978 42.4754 181.814 42.5241 181.649 42.5129C181.453 42.519 181.263 42.4489 181.129 42.3207C180.995 42.1925 180.929 42.0186 180.948 41.8435C180.924 41.6626 180.99 41.4815 181.127 41.3476C181.265 41.2137 181.461 41.1404 181.664 41.1469C181.982 41.1122 182.272 41.314 182.314 41.5993H181.997" fill="#4D4B53"/>
<path d="M182.314 40.4724H182.649L183.012 41.5552L183.366 40.457H183.686L183.148 41.9966C183.046 42.2583 182.978 42.5098 182.663 42.5098C182.594 42.5156 182.524 42.5156 182.455 42.5098V42.2378C182.502 42.2425 182.549 42.2425 182.595 42.2378C182.736 42.2378 182.775 42.1557 182.813 42.0325L182.847 41.9196L182.324 40.457" fill="#4D4B53"/>
</svg>
