<svg width="13" height="22" viewBox="0 0 13 22" fill="none" xmlns="http://www.w3.org/2000/svg">
<path fill-rule="evenodd" clip-rule="evenodd" d="M0.586196 1.05497C-0.192241 1.83862 -0.196965 3.11392 0.581472 3.89757L7.65709 11.0206L0.58146 18.1437C-0.19697 18.9274 -0.192234 20.2027 0.586196 20.9864C1.36463 21.77 2.63145 21.7748 3.40988 20.9912L11.8802 12.464C11.8868 12.4575 11.8933 12.451 11.8999 12.4444C11.9143 12.4299 11.9284 12.4153 11.9422 12.4005C12.3059 12.0143 12.4868 11.5171 12.4861 11.0198C12.4864 10.5264 12.3079 10.0333 11.9497 9.64867C11.9334 9.63114 11.9168 9.61382 11.8999 9.59674C11.8927 9.58954 11.8855 9.58241 11.8783 9.57535L3.40989 1.05021C2.63145 0.266559 1.36463 0.271314 0.586196 1.05497Z" fill="#00833F"/>
</svg>
