<svg width="52" height="75" viewBox="0 0 52 75" fill="none" xmlns="http://www.w3.org/2000/svg">
<path d="M49.9998 25.995C49.9998 39.2504 39.2543 49.9978 25.9989 49.9978C12.7475 49.9978 2 39.2504 2 25.995C2 12.7416 12.7475 2 25.9989 2C36.766 2 45.882 9.09242 48.9194 18.8594" stroke="#979797" stroke-width="3" stroke-linecap="round" stroke-linejoin="round"/>
<path d="M2 25.9951V33.7405C2 46.9939 12.7475 57.7414 25.9989 57.7414C39.2543 57.7414 49.9998 46.9939 49.9998 33.7405V25.9951" stroke="#979797" stroke-width="3" stroke-linecap="round" stroke-linejoin="round"/>
<path d="M2 33.9111V41.6526C2 54.9041 12.7475 65.6554 25.9989 65.6554C39.2543 65.6554 49.9998 54.9041 49.9998 41.6526V33.9111" stroke="#979797" stroke-width="3" stroke-linecap="round" stroke-linejoin="round"/>
<path d="M2 41.5708V49.3123C2 62.5637 12.7475 73.3151 25.9989 73.3151C39.2543 73.3151 49.9998 62.5637 49.9998 49.3123V41.5708" stroke="#979797" stroke-width="3" stroke-linecap="round" stroke-linejoin="round"/>
<path d="M21.0684 30.7594C21.0684 33.1399 22.9978 35.0733 25.3783 35.0733C27.7627 35.0733 29.6922 33.1399 29.6922 30.7594C29.6922 24.5945 21.0684 28.3319 21.0684 22.1493C21.0684 19.7708 22.9978 17.8394 25.3783 17.8394C27.7627 17.8394 29.6922 19.7708 29.6922 22.1493" stroke="#979797" stroke-width="3" stroke-linecap="round" stroke-linejoin="round"/>
<path d="M25.3789 38.49V35.0742" stroke="#979797" stroke-width="3" stroke-linecap="round" stroke-linejoin="round"/>
<path d="M25.3789 17.8392V14.4194" stroke="#979797" stroke-width="3" stroke-linecap="round" stroke-linejoin="round"/>
</svg>
