<svg width="98" height="95" viewBox="0 0 98 95" fill="none" xmlns="http://www.w3.org/2000/svg">
<path fill-rule="evenodd" clip-rule="evenodd" d="M7.40218 92.8987H91.184V44.026H7.40218V92.8987Z" stroke="#00833F" stroke-width="3" stroke-linecap="round" stroke-linejoin="round"/>
<path fill-rule="evenodd" clip-rule="evenodd" d="M96.4207 44.2438H2.16617L13.948 14.3529H86.6025L96.4207 44.2438Z" stroke="#00833F" stroke-width="3" stroke-linecap="round" stroke-linejoin="round"/>
<path fill-rule="evenodd" clip-rule="evenodd" d="M23.1113 14.3533H33.584V2.13513H23.1113V14.3533Z" stroke="#00833F" stroke-width="3" stroke-linecap="round" stroke-linejoin="round"/>
<path fill-rule="evenodd" clip-rule="evenodd" d="M49.2182 54.8154V92.8995H84.1273V54.8154L66.6728 25.9369L49.2182 54.8154Z" fill="white"/>
<path fill-rule="evenodd" clip-rule="evenodd" d="M66.6729 25.937L49.2184 54.8156V92.8979H84.1275V54.8156L66.6729 25.937Z" stroke="#00833F" stroke-width="3" stroke-linecap="round" stroke-linejoin="round"/>
<path fill-rule="evenodd" clip-rule="evenodd" d="M14.9478 73.5172H41.1296V52.5718H14.9478V73.5172Z" stroke="#00833F" stroke-width="3" stroke-linecap="round" stroke-linejoin="round"/>
<path d="M14.9485 63.0451H41.1303" stroke="#00833F" stroke-width="3" stroke-linecap="round" stroke-linejoin="round"/>
<path d="M28.0394 52.5723V73.5177" stroke="#00833F" stroke-width="3" stroke-linecap="round" stroke-linejoin="round"/>
<path fill-rule="evenodd" clip-rule="evenodd" d="M58.818 85.9169H74.5271V57.9896H58.818V85.9169Z" stroke="#00833F" stroke-width="3" stroke-linecap="round" stroke-linejoin="round"/>
<path fill-rule="evenodd" clip-rule="evenodd" d="M49.218 92.8988H84.1271V85.917H49.218V92.8988Z" stroke="#00833F" stroke-width="3" stroke-linecap="round" stroke-linejoin="round"/>
</svg>
