<svg width="52" height="52" viewBox="0 0 52 52" fill="none" xmlns="http://www.w3.org/2000/svg">
<path d="M49.9998 25.995C49.9998 39.2504 39.2543 49.9978 25.9989 49.9978C12.7475 49.9978 2 39.2504 2 25.995C2 12.7416 12.7475 2 25.9989 2C36.766 2 45.882 9.09242 48.9194 18.8594M21.0683 30.7594C21.0683 33.1399 22.9978 35.0733 25.3783 35.0733M25.3783 35.0733C27.7627 35.0733 29.6921 33.1399 29.6921 30.7594C29.6921 24.5945 21.0683 28.3319 21.0683 22.1493C21.0683 19.7708 22.9978 17.8393 25.3783 17.8393M25.3783 35.0733L25.3788 38.4898M25.3783 17.8393C27.7627 17.8393 29.6921 19.7708 29.6921 22.1493M25.3783 17.8393L25.3788 14.4196" stroke="#979797" stroke-width="3" stroke-linecap="round" stroke-linejoin="round"/>
</svg>
