<svg width="63" height="67" viewBox="0 0 63 67" fill="none" xmlns="http://www.w3.org/2000/svg">
<path d="M54.7023 63.6258C49.9171 66.2597 43.778 65.5475 39.723 61.4941C34.8033 56.571 34.8033 48.594 39.723 43.6742C44.6428 38.7544 52.6215 38.7544 57.5413 43.6742C61.8474 47.9803 62.3873 54.6264 59.1577 59.515" stroke="#00833F" stroke-width="3" stroke-linecap="round" stroke-linejoin="round"/>
<path d="M47.582 47.9431V54.3727H54.0116" stroke="#00833F" stroke-width="3" stroke-linecap="round" stroke-linejoin="round"/>
<path d="M52.8861 35.0208C53.6769 35.2676 54.5181 34.8265 54.7648 34.0357C55.0116 33.2449 54.5706 32.4038 53.7797 32.157L52.8861 35.0208ZM27.7006 24.0191C26.9097 23.7724 26.0686 24.2134 25.8218 25.0042C25.5751 25.7951 26.0161 26.6362 26.8069 26.883L27.7006 24.0191ZM18.8404 30.8716C19.6263 30.6095 20.051 29.76 19.7889 28.9741C19.5269 28.1882 18.6774 27.7636 17.8915 28.0256L18.8404 30.8716ZM5.94831 33.5889L5.47385 32.1659C4.9259 32.3486 4.53153 32.8297 4.45989 33.4028L5.94831 33.5889ZM2 65.1754L0.511583 64.9893C0.458218 65.4162 0.590745 65.8455 0.875483 66.1681C1.16022 66.4906 1.56975 66.6754 2 66.6754V65.1754ZM32.5657 66.6754C33.3942 66.6754 34.0657 66.0038 34.0657 65.1754C34.0657 64.3469 33.3942 63.6754 32.5657 63.6754V66.6754ZM53.7797 32.157L27.7006 24.0191L26.8069 26.883L52.8861 35.0208L53.7797 32.157ZM17.8915 28.0256L5.47385 32.1659L6.42276 35.0119L18.8404 30.8716L17.8915 28.0256ZM4.45989 33.4028L0.511583 64.9893L3.48842 65.3614L7.43672 33.7749L4.45989 33.4028ZM2 66.6754H32.5657V63.6754H2V66.6754Z" fill="#00833F"/>
<path d="M18.75 29.3629L29.6431 45.3153L40.5198 29.9241" stroke="#00833F" stroke-width="3" stroke-linecap="round" stroke-linejoin="round"/>
<path d="M12.5391 49.3837H20.4357" stroke="#00833F" stroke-width="3" stroke-linecap="round" stroke-linejoin="round"/>
<path fill-rule="evenodd" clip-rule="evenodd" d="M29.6415 2C36.1793 2 41.4864 7.30544 41.4864 13.8449C41.4864 19.1783 38.9002 22.2503 35.1865 24.0784C31.9865 25.6537 28.8571 26.2166 25.4618 24.9333C20.9818 23.2414 17.7949 18.9124 17.7949 13.8449C17.7949 7.30544 23.1004 2 29.6415 2Z" stroke="#00833F" stroke-width="3" stroke-linecap="round" stroke-linejoin="round"/>
</svg>
