<svg width="134" height="64" viewBox="0 0 134 64" fill="none" xmlns="http://www.w3.org/2000/svg">
<path fill-rule="evenodd" clip-rule="evenodd" d="M0 33.8695L4.32683 46.85L22.3561 30.2625L0 33.8695Z" fill="#231F20"/>
<path fill-rule="evenodd" clip-rule="evenodd" d="M22.8156 30.1685L51.6623 28.0047L62.7199 6.86646e-05L22.8156 30.1685Z" fill="#00B159"/>
<path fill-rule="evenodd" clip-rule="evenodd" d="M132.098 62.9902V62.6658V62.9902ZM119.217 63.9609C117.801 63.9595 115.444 63.8135 113.398 62.714C111.348 61.6224 109.638 59.5068 109.649 55.7884V41.5056H113.763V55.1476C113.762 55.2001 113.762 55.2526 113.762 55.3044C113.77 57.6559 114.649 58.8963 115.807 59.6255C116.97 60.3518 118.467 60.5229 119.645 60.5215C123.263 60.5251 126.326 58.4275 128.308 56.4622V41.5056H132.421V62.9902V63.3138H128.308V60.5884C125.993 62.3868 123.003 63.9609 119.22 63.9609H119.217ZM92.999 63.961C88.9109 63.9624 85.5649 62.7054 83.2393 60.6164C80.913 58.5281 79.6208 55.61 79.6223 52.3489C79.6187 48.6196 81.1475 45.7166 83.5629 43.7808C85.9777 41.8436 89.2596 40.8577 92.7854 40.8577C99.6463 40.8469 103.002 43.9757 104.743 46.796L104.925 47.0887L101.626 48.8706L101.364 49.0116L101.201 48.7635C100.212 47.2807 98.2592 44.3115 92.7854 44.2964C88.2615 44.3237 83.7477 46.6853 83.7362 52.6725C83.7463 57.1108 87.7373 60.5129 93.0838 60.5208C96.6685 60.5071 99.6169 59.5629 101.923 55.8207L102.082 55.5618L105.651 57.4416L105.472 57.7357C103.481 61.0385 100.079 63.9624 93.0522 63.961H92.999ZM71.2685 49.9608C70.4595 46.8219 67.5061 44.3086 62.517 44.2971C57.7076 44.3187 55.057 46.4436 53.9992 49.9608H71.2685ZM74.9819 58.3131L75.3026 58.5339L75.0272 58.8086C72.7548 61.0975 70.3574 63.9624 62.737 63.961H62.645C58.81 63.9624 55.5597 62.7234 53.2686 60.6401C50.9776 58.5583 49.653 55.6316 49.6544 52.3086C49.6523 48.8634 51.0337 45.9827 53.2996 43.9829C55.5654 41.9823 58.7036 40.857 62.2164 40.8577C65.7932 40.8577 69.1694 41.7235 71.6719 43.6543C74.1758 45.5843 75.7708 48.5938 75.7672 52.7423C75.7672 52.8537 75.7643 52.9673 75.7643 53.0802L75.76 53.4002H53.8058C54.3041 57.072 57.4912 60.5143 62.9873 60.5215C68.6711 60.5006 70.4271 58.165 71.856 56.5082L72.0451 56.286L74.9819 58.3131V58.3131ZM22.3063 58.8374L22.0841 58.5921L24.9015 56.1508L25.1496 55.9351L25.3618 56.186C27.4946 58.7101 30.6349 60.5172 35.2566 60.5208C37.0637 60.5222 38.7831 60.249 40.0113 59.6909C41.2481 59.1207 41.9464 58.3354 41.95 57.2445C41.9406 56.2637 41.4222 55.6668 40.4169 55.1728C39.4159 54.6932 37.9654 54.4098 36.341 54.1912C33.0856 53.7468 29.1442 53.5642 26.426 52.2554C24.6132 51.3947 23.3224 49.9255 23.3346 47.6143C23.3274 45.0802 24.7412 43.34 26.705 42.3067C28.6718 41.264 31.1973 40.8584 33.5868 40.8577C41.2036 40.8433 44.0943 43.9707 45.2715 45.5592L45.4542 45.8008L42.6202 48.2371L42.4095 47.9832C40.6247 45.8317 37.8763 44.3022 33.5437 44.2971C31.5216 44.2957 29.9619 44.6006 28.9465 45.1442C27.9311 45.6958 27.4572 46.4185 27.4493 47.4123C27.4565 48.2759 27.9577 48.8037 28.9702 49.251C29.9741 49.6803 31.4288 49.9334 33.0561 50.1355C36.3151 50.549 40.2601 50.769 42.9797 52.1598C44.7948 53.0788 46.0755 54.6155 46.064 57.0015C46.0726 59.55 44.7049 61.3456 42.6504 62.4264C40.5974 63.5151 37.8569 63.9602 34.9567 63.961H34.9236C29.9201 63.961 25.699 62.5875 22.3063 58.8374V58.8374Z" fill="#231F20"/>
</svg>
