<svg width="89" height="93" viewBox="0 0 89 93" fill="none" xmlns="http://www.w3.org/2000/svg">
<path fill-rule="evenodd" clip-rule="evenodd" d="M44.3333 2V82.8676C44.3333 87.2836 40.7528 90.8676 36.3333 90.8676C31.9173 90.8676 28.3333 87.2836 28.3333 82.8676" fill="white"/>
<path d="M44.3333 2V82.8676C44.3333 87.2836 40.7528 90.8676 36.3333 90.8676C31.9173 90.8676 28.3333 87.2836 28.3333 82.8676" stroke="#00833F" stroke-width="3" stroke-linecap="round" stroke-linejoin="round"/>
<path fill-rule="evenodd" clip-rule="evenodd" d="M65.6667 51.7778C65.6667 45.8898 60.8916 41.1111 55 41.1111C49.112 41.1111 44.3333 45.8898 44.3333 51.7778C44.3333 45.8898 39.5582 41.1111 33.6667 41.1111C27.7787 41.1111 23 45.8898 23 51.7778C23 45.8898 18.2249 41.1111 12.3333 41.1111C6.44534 41.1111 1.66666 45.8898 1.66666 51.7778C1.66666 28.2151 20.7707 9.11108 44.3333 9.11108C67.8996 9.11108 87 28.2151 87 51.7778C87 45.8898 82.2249 41.1111 76.3333 41.1111C70.4453 41.1111 65.6667 45.8898 65.6667 51.7778Z" stroke="#00833F" stroke-width="3" stroke-linecap="round" stroke-linejoin="round"/>
<path d="M44.3334 9.11108C44.3334 9.11108 65.6667 19.0809 65.6667 51.7778" stroke="#00833F" stroke-width="3" stroke-linecap="round" stroke-linejoin="round"/>
<path d="M44.3333 9.11108C44.3333 9.11108 22.9999 19.0809 22.9999 51.7778" stroke="#00833F" stroke-width="3" stroke-linecap="round" stroke-linejoin="round"/>
</svg>
